<svg width="276" height="264" viewBox="0 0 276 264" fill="none" xmlns="http://www.w3.org/2000/svg">
<path d="M151 74C151 114.292 117.447 147 76 147C34.5533 147 1 114.292 1 74C1 33.7082 34.5533 1 76 1C117.447 1 151 33.7082 151 74Z" fill="url(#paint0_linear_6_12)" stroke="black" stroke-width="2"/>
<path d="M275 190C275 230.292 241.447 263 200 263C158.553 263 125 230.292 125 190C125 149.708 158.553 117 200 117C241.447 117 275 149.708 275 190Z" fill="url(#paint1_linear_6_12)" stroke="black" stroke-width="2"/>
<circle cx="199.5" cy="189.5" r="2.5" fill="black"/>
<circle cx="75.5" cy="73.5" r="2.5" fill="black"/>
<line x1="76.3431" y1="73.6362" x2="199.343" y2="189.636" stroke="black"/>
<g clip-path="url(#clip0_6_12)">
<path d="M155.262 102.334C155.282 102.334 156.021 102.284 157.477 102.185C158.933 102.085 159.682 102.026 159.723 102.006C159.969 102.006 160.092 102.085 160.092 102.244C160.092 102.383 159.344 105.385 157.846 111.248C156.349 117.111 155.579 120.102 155.538 120.222C155.497 120.341 155.487 120.49 155.508 120.669C155.508 121.504 155.795 121.921 156.369 121.921C156.554 121.901 156.759 121.812 156.985 121.653C157.415 121.255 157.836 120.301 158.246 118.791C158.369 118.393 158.472 118.184 158.554 118.165C158.595 118.145 158.697 118.135 158.862 118.135H158.985H159.108C159.415 118.135 159.569 118.214 159.569 118.373C159.569 118.473 159.538 118.632 159.477 118.85C159.21 119.844 158.903 120.649 158.554 121.265C158.205 121.881 157.918 122.279 157.692 122.458C157.467 122.636 157.179 122.795 156.831 122.935C156.667 122.974 156.421 122.994 156.092 122.994C155.395 122.994 154.81 122.845 154.338 122.547C153.867 122.249 153.559 121.941 153.415 121.623L153.231 121.176C153.21 121.156 153.169 121.166 153.108 121.205C153.067 121.245 153.026 121.285 152.985 121.325C151.774 122.438 150.544 122.994 149.292 122.994C148.164 122.994 147.169 122.597 146.308 121.802C145.446 121.007 145.015 119.745 145.015 118.015C145.015 117.061 145.221 116.088 145.631 115.094C146.041 114.1 146.533 113.245 147.108 112.53C148.072 111.397 149.036 110.612 150 110.175C150.964 109.737 151.836 109.519 152.615 109.519C153.764 109.519 154.626 109.936 155.2 110.771C155.303 110.89 155.354 110.93 155.354 110.89C155.374 110.811 155.651 109.727 156.185 107.64C156.718 105.554 157.005 104.45 157.046 104.331C157.046 104.073 156.974 103.914 156.831 103.854C156.687 103.795 156.287 103.745 155.631 103.705H154.985C154.862 103.586 154.8 103.506 154.8 103.467C154.8 103.427 154.821 103.238 154.862 102.9C154.964 102.523 155.097 102.334 155.262 102.334ZM154.831 112.977C154.359 111.407 153.59 110.622 152.523 110.622C151.805 110.622 151.118 110.93 150.462 111.546C149.805 112.162 149.292 112.967 148.923 113.961C148.328 115.531 147.908 117.161 147.662 118.85C147.662 118.91 147.662 119.019 147.662 119.178C147.662 119.337 147.651 119.456 147.631 119.536C147.631 120.43 147.815 121.046 148.185 121.384C148.554 121.722 148.995 121.901 149.508 121.921C150.615 121.921 151.754 121.205 152.923 119.774L153.169 119.446L154.831 112.977Z" fill="black"/>
</g>
<g clip-path="url(#clip1_6_12)">
<path d="M213.761 192.978C213.783 192.911 213.805 192.823 213.827 192.713C213.849 192.603 213.904 192.36 213.993 191.985C214.081 191.61 214.191 191.268 214.324 190.959C214.456 190.65 214.621 190.286 214.82 189.867C215.019 189.448 215.239 189.117 215.482 188.874C215.724 188.632 216.011 188.389 216.342 188.146C216.673 187.904 217.037 187.804 217.434 187.849C219.089 187.849 220.148 188.554 220.611 189.966L220.942 189.668C222.31 188.455 223.611 187.849 224.846 187.849C226.28 187.849 227.405 188.367 228.222 189.404C229.038 190.441 229.446 191.698 229.446 193.176C229.446 195.559 228.608 197.754 226.931 199.761C225.255 201.769 223.357 202.783 221.24 202.805C220.754 202.805 220.324 202.739 219.949 202.607C219.706 202.497 219.453 202.331 219.188 202.111C218.923 201.89 218.714 201.702 218.559 201.548L218.328 201.283C218.306 201.305 218.063 202.265 217.6 204.162C217.136 206.059 216.905 207.019 216.905 207.041C216.905 207.173 216.993 207.251 217.169 207.273C217.346 207.295 217.754 207.328 218.394 207.372H219.221C219.353 207.526 219.42 207.626 219.42 207.67C219.42 207.714 219.386 207.912 219.32 208.265C219.254 208.53 219.188 208.696 219.122 208.762C219.056 208.828 218.912 208.872 218.692 208.894C218.647 208.894 218.526 208.894 218.328 208.894C218.129 208.894 217.754 208.883 217.203 208.861C216.651 208.839 215.967 208.828 215.151 208.828C213.607 208.828 212.625 208.85 212.206 208.894H211.941C211.787 208.74 211.709 208.618 211.709 208.53C211.754 207.935 211.897 207.548 212.14 207.372H212.801C213.552 207.35 213.982 207.218 214.092 206.975C214.158 206.843 214.831 204.206 216.111 199.066C217.39 193.926 218.063 191.202 218.129 190.893C218.151 190.783 218.162 190.628 218.162 190.43C218.162 189.525 217.886 189.073 217.335 189.073C216.85 189.073 216.441 189.382 216.111 189.999C215.78 190.617 215.526 191.29 215.349 192.018C215.173 192.746 215.041 193.143 214.952 193.209C214.908 193.253 214.732 193.275 214.423 193.275H213.96C213.827 193.143 213.761 193.044 213.761 192.978ZM218.89 199.099C219.375 200.776 220.192 201.614 221.339 201.614C222.001 201.614 222.64 201.361 223.258 200.853C223.876 200.346 224.383 199.706 224.78 198.934C225.177 198.184 225.574 196.993 225.972 195.36C226.369 193.728 226.578 192.514 226.6 191.72V191.522C226.6 189.889 225.927 189.073 224.582 189.073C224.339 189.073 224.096 189.106 223.854 189.172C223.611 189.238 223.368 189.338 223.126 189.47C222.883 189.602 222.662 189.746 222.464 189.9C222.265 190.055 222.078 190.22 221.901 190.396C221.725 190.573 221.559 190.738 221.405 190.893C221.251 191.047 221.129 191.202 221.041 191.356C220.953 191.511 220.865 191.621 220.776 191.687L220.677 191.819C220.677 191.841 220.644 191.996 220.578 192.283C220.512 192.569 220.39 193.055 220.214 193.739C220.037 194.423 219.883 194.996 219.75 195.459C219.177 197.798 218.89 199.011 218.89 199.099Z" fill="black"/>
<path d="M232.195 197.402C231.774 197.402 231.438 197.261 231.189 196.981C230.939 196.7 230.814 196.357 230.814 195.951C230.814 194.844 231.228 193.885 232.054 193.074C232.881 192.263 233.91 191.857 235.142 191.857C236.562 191.857 237.747 192.294 238.699 193.167C239.65 194.041 240.133 195.171 240.149 196.559C240.149 197.23 239.993 197.87 239.681 198.478C239.369 199.086 238.995 199.616 238.558 200.069C238.121 200.521 237.498 201.098 236.687 201.8C236.125 202.283 235.345 203.001 234.347 203.952L232.967 205.262L234.745 205.286C237.193 205.286 238.496 205.247 238.652 205.169C238.761 205.138 238.948 204.444 239.213 203.087V203.016H240.149V203.087C240.133 203.133 240.032 203.843 239.845 205.216C239.658 206.588 239.541 207.306 239.494 207.368V207.438H230.814V206.994V206.713C230.814 206.604 230.861 206.487 230.955 206.362C231.048 206.237 231.282 205.964 231.657 205.543C232.109 205.044 232.499 204.607 232.826 204.233C232.967 204.077 233.232 203.789 233.622 203.367C234.012 202.946 234.277 202.658 234.417 202.502C234.558 202.346 234.784 202.088 235.096 201.73C235.408 201.371 235.626 201.106 235.751 200.934C235.876 200.763 236.055 200.529 236.289 200.232C236.523 199.936 236.687 199.687 236.78 199.484C236.874 199.281 236.991 199.055 237.131 198.805C237.271 198.556 237.373 198.306 237.435 198.057C237.498 197.807 237.552 197.573 237.599 197.355C237.646 197.137 237.669 196.879 237.669 196.583C237.669 195.6 237.404 194.75 236.874 194.033C236.343 193.315 235.587 192.957 234.604 192.957C234.09 192.957 233.637 193.089 233.247 193.354C232.858 193.619 232.585 193.877 232.429 194.126C232.273 194.376 232.195 194.524 232.195 194.571C232.195 194.586 232.234 194.594 232.312 194.594C232.592 194.594 232.881 194.703 233.177 194.922C233.474 195.14 233.622 195.499 233.622 195.998C233.622 196.388 233.497 196.715 233.247 196.981C232.998 197.246 232.647 197.386 232.195 197.402Z" fill="black"/>
<path d="M234.959 179.973C234.959 179.796 235.014 179.642 235.124 179.51C235.235 179.377 235.4 179.311 235.621 179.311C235.775 179.311 235.908 179.366 236.018 179.477C236.128 179.565 236.238 179.774 236.349 180.105C236.569 180.922 237.022 181.55 237.705 181.991C237.948 182.146 238.069 182.344 238.069 182.587C238.069 182.786 238.036 182.918 237.97 182.984C237.904 183.05 237.75 183.15 237.507 183.282C236.558 183.767 235.731 184.462 235.025 185.367C234.981 185.411 234.926 185.477 234.86 185.565C234.794 185.653 234.738 185.72 234.694 185.764C234.65 185.808 234.595 185.83 234.529 185.83C234.463 185.83 234.385 185.841 234.297 185.863C234.143 185.863 233.999 185.808 233.867 185.698C233.735 185.587 233.657 185.422 233.635 185.201C233.635 184.782 234.154 184.131 235.191 183.249H229.532L223.874 183.216C223.587 183.017 223.443 182.808 223.443 182.587C223.443 182.433 223.587 182.212 223.874 181.925H235.753C235.224 181.087 234.959 180.436 234.959 179.973Z" fill="black"/>
</g>
<g clip-path="url(#clip2_6_12)">
<path d="M94.7611 59.9775C94.7831 59.9113 94.8052 59.8231 94.8273 59.7128C94.8493 59.6025 94.9045 59.3598 94.9927 58.9848C95.081 58.6098 95.1913 58.2678 95.3236 57.959C95.456 57.6501 95.6214 57.2862 95.82 56.867C96.0185 56.4479 96.2391 56.1169 96.4818 55.8743C96.7245 55.6316 97.0112 55.389 97.3422 55.1463C97.6731 54.9036 98.0371 54.8044 98.4341 54.8485C100.089 54.8485 101.148 55.5544 101.611 56.9663L101.942 56.6685C103.31 55.4551 104.611 54.8485 105.846 54.8485C107.28 54.8485 108.405 55.3669 109.222 56.4037C110.038 57.4406 110.446 58.698 110.446 60.1761C110.446 62.5586 109.608 64.7536 107.931 66.7611C106.255 68.7686 104.357 69.7834 102.24 69.8055C101.754 69.8055 101.324 69.7393 100.949 69.6069C100.706 69.4966 100.453 69.3312 100.188 69.1105C99.9232 68.8899 99.7136 68.7024 99.5592 68.548L99.3276 68.2833C99.3055 68.3053 99.0629 69.265 98.5996 71.1622C98.1363 73.0594 97.9047 74.019 97.9047 74.0411C97.9047 74.1734 97.9929 74.2506 98.1694 74.2727C98.3459 74.2948 98.754 74.3278 99.3938 74.372H100.221C100.353 74.5264 100.42 74.6257 100.42 74.6698C100.42 74.7139 100.386 74.9124 100.32 75.2654C100.254 75.5301 100.188 75.6956 100.122 75.7618C100.056 75.828 99.9122 75.8721 99.6916 75.8941C99.6475 75.8941 99.5261 75.8941 99.3276 75.8941C99.129 75.8941 98.754 75.8831 98.2025 75.861C97.651 75.839 96.9671 75.828 96.1509 75.828C94.6067 75.828 93.625 75.85 93.2058 75.8941H92.9411C92.7867 75.7397 92.7095 75.6184 92.7095 75.5301C92.7536 74.9345 92.897 74.5484 93.1396 74.372H93.8014C94.5515 74.3499 94.9817 74.2175 95.092 73.9749C95.1582 73.8425 95.831 71.2063 97.1105 66.0662C98.39 60.9261 99.0629 58.2017 99.129 57.8928C99.1511 57.7825 99.1621 57.6281 99.1621 57.4295C99.1621 56.5251 98.8864 56.0728 98.3349 56.0728C97.8495 56.0728 97.4414 56.3817 97.1105 56.9994C96.7796 57.6171 96.5259 58.2899 96.3494 59.0179C96.1729 59.7459 96.0406 60.143 95.9523 60.2092C95.9082 60.2533 95.7317 60.2753 95.4229 60.2753H94.9596C94.8273 60.143 94.7611 60.0437 94.7611 59.9775ZM99.8901 66.0993C100.375 67.7759 101.192 68.6142 102.339 68.6142C103.001 68.6142 103.64 68.3605 104.258 67.8531C104.876 67.3457 105.383 66.706 105.78 65.9338C106.177 65.1838 106.574 63.9925 106.972 62.3601C107.369 60.7276 107.578 59.5143 107.6 58.7201V58.5215C107.6 56.8891 106.927 56.0728 105.582 56.0728C105.339 56.0728 105.096 56.1059 104.854 56.1721C104.611 56.2383 104.368 56.3376 104.126 56.4699C103.883 56.6023 103.662 56.7457 103.464 56.9001C103.265 57.0545 103.078 57.22 102.901 57.3965C102.725 57.5729 102.559 57.7384 102.405 57.8928C102.251 58.0472 102.129 58.2017 102.041 58.3561C101.953 58.5105 101.865 58.6208 101.776 58.687L101.677 58.8194C101.677 58.8414 101.644 58.9958 101.578 59.2826C101.512 59.5694 101.39 60.0547 101.214 60.7386C101.037 61.4225 100.883 61.9961 100.75 62.4593C100.177 64.7977 99.8901 66.0111 99.8901 66.0993Z" fill="black"/>
<path d="M115.628 60.9158L115.324 61.0327C115.105 61.1107 114.793 61.1887 114.388 61.2667C113.982 61.3447 113.53 61.3993 113.031 61.4305H112.586V60.3543H113.031C113.764 60.3231 114.442 60.2061 115.066 60.0034C115.69 59.8006 116.127 59.6134 116.376 59.4419C116.626 59.2703 116.844 59.0988 117.031 58.9272C117.063 58.8804 117.156 58.857 117.312 58.857C117.453 58.857 117.585 58.9038 117.71 58.9974V65.9925L117.733 73.011C117.842 73.1202 117.936 73.1904 118.014 73.2216C118.092 73.2528 118.279 73.284 118.576 73.3152C118.872 73.3464 119.355 73.362 120.026 73.362H120.634V74.4381H120.377C120.049 74.3914 118.809 74.368 116.657 74.368C114.536 74.368 113.312 74.3914 112.984 74.4381H112.703V73.362H113.312C113.655 73.362 113.951 73.362 114.201 73.362C114.45 73.362 114.645 73.3542 114.786 73.3386C114.926 73.323 115.051 73.2996 115.16 73.2684C115.269 73.2372 115.331 73.2216 115.347 73.2216C115.363 73.2216 115.409 73.1826 115.487 73.1046C115.565 73.0266 115.612 72.9954 115.628 73.011V60.9158Z" fill="black"/>
<path d="M115.959 46.9729C115.959 46.7964 116.014 46.642 116.124 46.5096C116.235 46.3773 116.4 46.3111 116.621 46.3111C116.775 46.3111 116.908 46.3662 117.018 46.4765C117.128 46.5648 117.238 46.7744 117.349 47.1053C117.569 47.9215 118.022 48.5502 118.705 48.9914C118.948 49.1459 119.069 49.3444 119.069 49.5871C119.069 49.7856 119.036 49.918 118.97 49.9841C118.904 50.0503 118.75 50.1496 118.507 50.282C117.558 50.7673 116.731 51.4622 116.025 52.3667C115.981 52.4108 115.926 52.477 115.86 52.5652C115.794 52.6535 115.738 52.7196 115.694 52.7638C115.65 52.8079 115.595 52.8299 115.529 52.8299C115.463 52.8299 115.385 52.841 115.297 52.863C115.143 52.863 114.999 52.8079 114.867 52.6976C114.735 52.5873 114.657 52.4218 114.635 52.2012C114.635 51.7821 115.154 51.1313 116.191 50.2489H110.532L104.874 50.2158C104.587 50.0172 104.443 49.8077 104.443 49.5871C104.443 49.4326 104.587 49.212 104.874 48.9252H116.753C116.224 48.087 115.959 47.4362 115.959 46.9729Z" fill="black"/>
</g>
<defs>
<linearGradient id="paint0_linear_6_12" x1="76" y1="0" x2="76" y2="148" gradientUnits="userSpaceOnUse">
<stop stop-color="#D9D9D9"/>
<stop offset="1" stop-color="#737373" stop-opacity="0"/>
</linearGradient>
<linearGradient id="paint1_linear_6_12" x1="200" y1="116" x2="200" y2="264" gradientUnits="userSpaceOnUse">
<stop stop-color="#D9D9D9"/>
<stop offset="1" stop-color="#737373" stop-opacity="0"/>
</linearGradient>
<clipPath id="clip0_6_12">
<rect width="16" height="21" fill="white" transform="translate(144 102)"/>
</clipPath>
<clipPath id="clip1_6_12">
<rect width="30" height="32.8961" fill="white" transform="translate(213 176)"/>
</clipPath>
<clipPath id="clip2_6_12">
<rect width="30" height="32.8961" fill="white" transform="translate(94 43)"/>
</clipPath>
</defs>
</svg>
