<svg width="314" height="293" viewBox="0 0 314 293" fill="none" xmlns="http://www.w3.org/2000/svg">
<path d="M187 82C187 122.292 153.447 155 112 155C70.5533 155 37 122.292 37 82C37 41.7082 70.5533 9 112 9C153.447 9 187 41.7082 187 82Z" fill="url(#paint0_linear_7_108)" stroke="black" stroke-width="2"/>
<circle cx="112.5" cy="81.5" r="2.5" fill="black"/>
<path d="M82.0516 57.6912C82.0737 57.625 82.0957 57.5368 82.1178 57.4265C82.1399 57.3162 82.195 57.0735 82.2833 56.6985C82.3715 56.3234 82.4818 55.9815 82.6142 55.6726C82.7465 55.3638 82.912 54.9998 83.1105 54.5807C83.3091 54.1615 83.5297 53.8306 83.7723 53.5879C84.015 53.3453 84.3018 53.1026 84.6327 52.8599C84.9636 52.6173 85.3276 52.518 85.7247 52.5621C87.3792 52.5621 88.4381 53.2681 88.9014 54.6799L89.2323 54.3821C90.6 53.1688 91.9016 52.5621 93.137 52.5621C94.5709 52.5621 95.696 53.0805 96.5122 54.1174C97.3285 55.1542 97.7366 56.4117 97.7366 57.8897C97.7366 60.2722 96.8983 62.4673 95.2217 64.4748C93.5451 66.4823 91.6479 67.497 89.5301 67.5191C89.0448 67.5191 88.6146 67.4529 88.2396 67.3206C87.9969 67.2103 87.7432 67.0448 87.4785 66.8242C87.2138 66.6036 87.0042 66.4161 86.8498 66.2617L86.6181 65.9969C86.5961 66.019 86.3534 66.9786 85.8901 68.8758C85.4269 70.773 85.1952 71.7327 85.1952 71.7547C85.1952 71.8871 85.2835 71.9643 85.46 71.9863C85.6364 72.0084 86.0446 72.0415 86.6843 72.0856H87.5116C87.6439 72.24 87.7101 72.3393 87.7101 72.3834C87.7101 72.4276 87.677 72.6261 87.6109 72.9791C87.5447 73.2438 87.4785 73.4092 87.4123 73.4754C87.3461 73.5416 87.2027 73.5857 86.9821 73.6078C86.938 73.6078 86.8167 73.6078 86.6181 73.6078C86.4196 73.6078 86.0446 73.5968 85.4931 73.5747C84.9415 73.5526 84.2577 73.5416 83.4414 73.5416C81.8972 73.5416 80.9155 73.5637 80.4964 73.6078H80.2316C80.0772 73.4534 80 73.332 80 73.2438C80.0441 72.6482 80.1875 72.2621 80.4302 72.0856H81.092C81.842 72.0636 82.2722 71.9312 82.3825 71.6885C82.4487 71.5562 83.1216 68.9199 84.4011 63.7799C85.6806 58.6398 86.3534 55.9153 86.4196 55.6065C86.4416 55.4962 86.4527 55.3417 86.4527 55.1432C86.4527 54.2387 86.1769 53.7865 85.6254 53.7865C85.1401 53.7865 84.732 54.0953 84.4011 54.713C84.0702 55.3307 83.8165 56.0036 83.64 56.7315C83.4635 57.4595 83.3311 57.8566 83.2429 57.9228C83.1988 57.9669 83.0223 57.989 82.7134 57.989H82.2502C82.1178 57.8566 82.0516 57.7574 82.0516 57.6912ZM87.1807 63.813C87.666 65.4895 88.4822 66.3278 89.6294 66.3278C90.2912 66.3278 90.931 66.0741 91.5486 65.5668C92.1663 65.0594 92.6737 64.4196 93.0708 63.6475C93.4679 62.8974 93.865 61.7062 94.2621 60.0737C94.6592 58.4412 94.8687 57.2279 94.8908 56.4337V56.2352C94.8908 54.6027 94.218 53.7865 92.8723 53.7865C92.6296 53.7865 92.3869 53.8196 92.1443 53.8858C91.9016 53.9519 91.6589 54.0512 91.4163 54.1836C91.1736 54.3159 90.953 54.4593 90.7545 54.6137C90.5559 54.7682 90.3684 54.9336 90.1919 55.1101C90.0154 55.2866 89.85 55.452 89.6956 55.6065C89.5411 55.7609 89.4198 55.9153 89.3316 56.0697C89.2433 56.2242 89.1551 56.3345 89.0668 56.4006L88.9676 56.533C88.9676 56.5551 88.9345 56.7095 88.8683 56.9963C88.8021 57.2831 88.6808 57.7684 88.5043 58.4523C88.3278 59.1361 88.1734 59.7097 88.041 60.173C87.4675 62.5114 87.1807 63.7247 87.1807 63.813Z" fill="black"/>
<path d="M102.918 58.6294L102.614 58.7464C102.396 58.8244 102.084 58.9024 101.678 58.9804C101.273 59.0583 100.821 59.1129 100.321 59.1441H99.877V58.0679H100.321C101.055 58.0367 101.733 57.9198 102.357 57.717C102.981 57.5143 103.417 57.3271 103.667 57.1555C103.917 56.984 104.135 56.8124 104.322 56.6408C104.353 56.5941 104.447 56.5707 104.603 56.5707C104.743 56.5707 104.876 56.6174 105 56.711V63.7062L105.024 70.7247C105.133 70.8339 105.227 70.9041 105.305 70.9352C105.383 70.9664 105.57 70.9976 105.866 71.0288C106.162 71.06 106.646 71.0756 107.317 71.0756H107.925V72.1518H107.668C107.34 72.105 106.1 72.0816 103.948 72.0816C101.827 72.0816 100.602 72.105 100.275 72.1518H99.9939V71.0756H100.602C100.945 71.0756 101.242 71.0756 101.491 71.0756C101.741 71.0756 101.936 71.0678 102.076 71.0522C102.216 71.0366 102.341 71.0132 102.45 70.982C102.56 70.9508 102.622 70.9352 102.638 70.9352C102.653 70.9352 102.7 70.8963 102.778 70.8183C102.856 70.7403 102.903 70.7091 102.918 70.7247V58.6294Z" fill="black"/>
<path d="M103.249 44.6618C103.249 44.4853 103.305 44.3309 103.415 44.1985C103.525 44.0662 103.691 44 103.911 44C104.066 44 104.198 44.0551 104.308 44.1654C104.419 44.2537 104.529 44.4633 104.639 44.7942C104.86 45.6104 105.312 46.2391 105.996 46.6803C106.239 46.8348 106.36 47.0333 106.36 47.276C106.36 47.4745 106.327 47.6069 106.261 47.6731C106.195 47.7392 106.04 47.8385 105.797 47.9709C104.849 48.4562 104.022 49.1511 103.316 50.0556C103.272 50.0997 103.216 50.1659 103.15 50.2541C103.084 50.3424 103.029 50.4085 102.985 50.4527C102.941 50.4968 102.885 50.5189 102.819 50.5189C102.753 50.5189 102.676 50.5299 102.588 50.5519C102.433 50.5519 102.29 50.4968 102.157 50.3865C102.025 50.2762 101.948 50.1107 101.926 49.8901C101.926 49.471 102.444 48.8202 103.481 47.9378H97.8226L92.1641 47.9047C91.8773 47.7061 91.7339 47.4966 91.7339 47.276C91.7339 47.1215 91.8773 46.9009 92.1641 46.6142H104.044C103.514 45.7759 103.249 45.1251 103.249 44.6618Z" fill="black"/>
<line x1="113.367" y1="81.66" x2="164.367" y2="136.66" stroke="black"/>
<g clip-path="url(#clip0_7_108)">
<path d="M144.934 97.0425C144.954 96.9817 144.975 96.9007 144.995 96.7994C145.015 96.6981 145.066 96.4753 145.147 96.1308C145.228 95.7864 145.329 95.4724 145.451 95.1888C145.572 94.9051 145.724 94.5708 145.907 94.1859C146.089 93.801 146.292 93.4971 146.514 93.2742C146.737 93.0514 147.001 92.8285 147.305 92.6056C147.608 92.3828 147.943 92.2916 148.307 92.3321C148.895 92.3321 149.412 92.4537 149.857 92.6968C150.303 92.9399 150.617 93.1628 150.799 93.3654C150.982 93.568 151.093 93.7706 151.134 93.9732C151.174 94.0947 151.205 94.1555 151.225 94.1555C151.245 94.1555 151.326 94.0846 151.468 93.9428C152.44 92.8893 153.565 92.3625 154.841 92.3625H154.932C155.905 92.3625 156.634 92.7779 157.12 93.6085C157.283 93.9934 157.364 94.3682 157.364 94.7329C157.364 95.3407 157.232 95.8269 156.968 96.1916C156.705 96.5563 156.442 96.7893 156.178 96.8906C155.915 96.9919 155.662 97.0324 155.419 97.0121C155.013 97.0121 154.689 96.9007 154.446 96.6779C154.203 96.455 154.081 96.1612 154.081 95.7966C154.081 94.8241 154.649 94.1758 155.783 93.8516C155.338 93.5882 154.973 93.4566 154.689 93.4566C153.555 93.4566 152.511 94.2062 151.559 95.7054C151.357 96.0295 151.205 96.3638 151.103 96.7082C151.002 97.0527 150.658 98.3999 150.07 100.75C149.381 103.586 148.986 105.096 148.885 105.278C148.621 105.825 148.186 106.099 147.578 106.099C147.315 106.099 147.102 106.038 146.94 105.916C146.778 105.795 146.666 105.673 146.606 105.552C146.545 105.43 146.525 105.329 146.545 105.248C146.545 104.984 146.95 103.242 147.76 100.021C148.571 96.7994 148.976 95.0064 148.976 94.6417C148.976 93.8516 148.713 93.4566 148.186 93.4566C147.76 93.4566 147.396 93.7402 147.092 94.3075C146.788 94.8747 146.545 95.4927 146.363 96.1612C146.18 96.8298 146.069 97.1945 146.028 97.2553C145.988 97.2958 145.826 97.316 145.542 97.316H145.117C144.995 97.1945 144.934 97.1033 144.934 97.0425Z" fill="black"/>
<path d="M162.578 97.9042L162.299 98.0116C162.098 98.0833 161.812 98.1549 161.439 98.2265C161.067 98.2981 160.652 98.3483 160.193 98.3769H159.785V97.3886H160.193C160.866 97.3599 161.49 97.2525 162.062 97.0663C162.635 96.8801 163.036 96.7082 163.266 96.5506C163.495 96.3931 163.695 96.2355 163.867 96.078C163.896 96.035 163.982 96.0135 164.125 96.0135C164.254 96.0135 164.376 96.0565 164.49 96.1424V102.567L164.512 109.012C164.612 109.112 164.698 109.177 164.77 109.206C164.841 109.234 165.013 109.263 165.285 109.292C165.557 109.32 166.001 109.334 166.617 109.334H167.176V110.323H166.94C166.639 110.28 165.5 110.258 163.524 110.258C161.575 110.258 160.451 110.28 160.15 110.323H159.892V109.334H160.451C160.766 109.334 161.038 109.334 161.268 109.334C161.497 109.334 161.676 109.327 161.805 109.313C161.934 109.299 162.048 109.277 162.148 109.249C162.249 109.22 162.306 109.206 162.32 109.206C162.335 109.206 162.378 109.17 162.449 109.098C162.521 109.027 162.564 108.998 162.578 109.012V97.9042Z" fill="black"/>
</g>
<line x1="1.30742" y1="292.279" x2="302.307" y2="3.27865" stroke="black" stroke-width="2"/>
<path d="M309.121 17.0559C309.121 17.6465 309.345 17.9418 309.792 17.9418C310.454 17.9418 311.018 17.0022 311.483 15.123C311.591 14.7651 311.68 14.5772 311.752 14.5593C311.787 14.5414 311.877 14.5324 312.02 14.5324H312.128C312.289 14.5324 312.396 14.5324 312.45 14.5324C312.503 14.5324 312.548 14.5503 312.584 14.5861C312.62 14.6219 312.638 14.6846 312.638 14.774C312.62 14.8814 312.593 15.0246 312.557 15.2036C312.521 15.3825 312.423 15.7226 312.262 16.2237C312.101 16.7248 311.922 17.1454 311.725 17.4854C311.528 17.8255 311.251 18.1566 310.893 18.4787C310.535 18.8009 310.123 18.953 309.658 18.9351C309.013 18.9351 308.414 18.7382 307.859 18.3445C307.304 17.9508 307.018 17.2886 307 16.3579C307 16.1432 307.009 15.991 307.027 15.9016L308.772 8.97538C309.899 4.41162 310.463 2.05815 310.463 1.91498C310.463 1.86129 310.454 1.81654 310.436 1.78075C310.418 1.74496 310.383 1.70916 310.329 1.67337C310.275 1.63757 310.23 1.61968 310.195 1.61968C310.159 1.61968 310.087 1.61073 309.98 1.59283C309.872 1.57493 309.801 1.56598 309.765 1.56598C309.729 1.56598 309.649 1.55704 309.523 1.53914C309.398 1.52124 309.309 1.52124 309.255 1.53914C309.076 1.53914 308.96 1.53914 308.906 1.53914C308.852 1.53914 308.781 1.53019 308.691 1.51229C308.602 1.4944 308.548 1.46755 308.53 1.43176C308.512 1.39596 308.503 1.34227 308.503 1.27068C308.503 1.23489 308.521 1.10961 308.557 0.894844C308.647 0.554799 308.745 0.36688 308.852 0.331085C308.96 0.295291 309.604 0.2416 310.785 0.170012C311.054 0.152114 311.358 0.134217 311.698 0.11632C312.038 0.0984232 312.306 0.0715776 312.503 0.0357834C312.7 -1.07912e-05 312.799 -0.00895934 312.799 0.00893776C313.013 0.00893776 313.121 0.0805261 313.121 0.223703C313.121 0.420571 312.468 3.10513 311.161 8.27739C309.855 13.4497 309.183 16.1611 309.148 16.4116C309.148 16.4474 309.148 16.519 309.148 16.6264C309.148 16.7338 309.139 16.8233 309.121 16.8948V17.0559Z" fill="black"/>
<defs>
<linearGradient id="paint0_linear_7_108" x1="112" y1="8" x2="112" y2="156" gradientUnits="userSpaceOnUse">
<stop stop-color="#D9D9D9"/>
<stop offset="1" stop-color="#737373" stop-opacity="0"/>
</linearGradient>
<clipPath id="clip0_7_108">
<rect width="38" height="26.3228" fill="white" transform="translate(144 84)"/>
</clipPath>
</defs>
</svg>
