<svg width="277" height="287" viewBox="0 0 277 287" fill="none" xmlns="http://www.w3.org/2000/svg">
<path d="M219 105C219 162.394 170.243 209 110 209C49.7566 209 1 162.394 1 105C1 47.6057 49.7566 1 110 1C170.243 1 219 47.6057 219 105Z" fill="url(#paint0_linear_8_226)" stroke="black" stroke-width="2"/>
<path d="M276 213C276 253.292 242.447 286 201 286C159.553 286 126 253.292 126 213C126 172.708 159.553 140 201 140C242.447 140 276 172.708 276 213Z" fill="url(#paint1_linear_8_226)" stroke="black" stroke-width="2"/>
<circle cx="206.5" cy="212.5" r="2.5" fill="black"/>
<circle cx="75.5" cy="73.5" r="2.5" fill="black"/>
<line x1="159.759" y1="153.349" x2="183.759" y2="181.349" stroke="black" stroke-width="2"/>
<path d="M116.123 97.0076C115.575 96.9396 115.076 97.3287 115.008 97.8768L113.899 106.808C113.831 107.356 114.22 107.856 114.768 107.924C115.316 107.992 115.816 107.603 115.884 107.055L116.869 99.1156L124.808 100.101C125.356 100.169 125.856 99.7798 125.924 99.2317C125.992 98.6836 125.603 98.1842 125.055 98.1162L116.123 97.0076ZM115.211 98.6146L158.608 154.311L160.186 153.082L116.789 97.3854L115.211 98.6146Z" fill="#D53232"/>
<g clip-path="url(#clip0_8_226)">
<path d="M204.761 223.978C204.783 223.911 204.805 223.823 204.827 223.713C204.849 223.602 204.904 223.36 204.993 222.985C205.081 222.61 205.191 222.268 205.324 221.959C205.456 221.65 205.621 221.286 205.82 220.867C206.019 220.448 206.239 220.117 206.482 219.874C206.724 219.632 207.011 219.389 207.342 219.146C207.673 218.904 208.037 218.804 208.434 218.848C210.089 218.848 211.148 219.554 211.611 220.966L211.942 220.668C213.31 219.455 214.611 218.848 215.846 218.848C217.28 218.848 218.405 219.367 219.222 220.404C220.038 221.441 220.446 222.698 220.446 224.176C220.446 226.559 219.608 228.754 217.931 230.761C216.255 232.769 214.357 233.783 212.24 233.805C211.754 233.805 211.324 233.739 210.949 233.607C210.706 233.497 210.453 233.331 210.188 233.111C209.923 232.89 209.714 232.702 209.559 232.548L209.328 232.283C209.306 232.305 209.063 233.265 208.6 235.162C208.136 237.059 207.905 238.019 207.905 238.041C207.905 238.173 207.993 238.251 208.169 238.273C208.346 238.295 208.754 238.328 209.394 238.372H210.221C210.353 238.526 210.42 238.626 210.42 238.67C210.42 238.714 210.387 238.912 210.32 239.265C210.254 239.53 210.188 239.696 210.122 239.762C210.056 239.828 209.912 239.872 209.692 239.894C209.647 239.894 209.526 239.894 209.328 239.894C209.129 239.894 208.754 239.883 208.203 239.861C207.651 239.839 206.967 239.828 206.151 239.828C204.607 239.828 203.625 239.85 203.206 239.894H202.941C202.787 239.74 202.709 239.618 202.709 239.53C202.754 238.935 202.897 238.548 203.14 238.372H203.801C204.552 238.35 204.982 238.218 205.092 237.975C205.158 237.843 205.831 235.206 207.111 230.066C208.39 224.926 209.063 222.202 209.129 221.893C209.151 221.783 209.162 221.628 209.162 221.43C209.162 220.525 208.886 220.073 208.335 220.073C207.85 220.073 207.441 220.382 207.111 220.999C206.78 221.617 206.526 222.29 206.349 223.018C206.173 223.746 206.041 224.143 205.952 224.209C205.908 224.253 205.732 224.275 205.423 224.275H204.96C204.827 224.143 204.761 224.044 204.761 223.978ZM209.89 230.099C210.375 231.776 211.192 232.614 212.339 232.614C213.001 232.614 213.64 232.36 214.258 231.853C214.876 231.346 215.383 230.706 215.78 229.934C216.177 229.184 216.574 227.993 216.972 226.36C217.369 224.728 217.578 223.514 217.6 222.72V222.522C217.6 220.889 216.927 220.073 215.582 220.073C215.339 220.073 215.096 220.106 214.854 220.172C214.611 220.238 214.368 220.338 214.126 220.47C213.883 220.602 213.662 220.746 213.464 220.9C213.265 221.055 213.078 221.22 212.901 221.396C212.725 221.573 212.559 221.738 212.405 221.893C212.251 222.047 212.129 222.202 212.041 222.356C211.953 222.511 211.865 222.621 211.776 222.687L211.677 222.819C211.677 222.841 211.644 222.996 211.578 223.283C211.512 223.569 211.39 224.055 211.214 224.739C211.037 225.422 210.883 225.996 210.751 226.459C210.177 228.798 209.89 230.011 209.89 230.099Z" fill="black"/>
<path d="M223.195 228.402C222.774 228.402 222.438 228.261 222.189 227.981C221.939 227.7 221.814 227.357 221.814 226.951C221.814 225.844 222.228 224.885 223.054 224.074C223.881 223.263 224.91 222.857 226.142 222.857C227.562 222.857 228.747 223.294 229.699 224.167C230.65 225.041 231.133 226.171 231.149 227.559C231.149 228.23 230.993 228.87 230.681 229.478C230.369 230.086 229.995 230.616 229.558 231.069C229.121 231.521 228.498 232.098 227.687 232.8C227.125 233.283 226.345 234.001 225.347 234.952L223.967 236.262L225.745 236.286C228.193 236.286 229.496 236.247 229.652 236.169C229.761 236.138 229.948 235.444 230.213 234.087V234.016H231.149V234.087C231.133 234.133 231.032 234.843 230.845 236.216C230.658 237.588 230.541 238.306 230.494 238.368V238.438H221.814V237.994V237.713C221.814 237.604 221.861 237.487 221.955 237.362C222.048 237.237 222.282 236.964 222.657 236.543C223.109 236.044 223.499 235.607 223.826 235.233C223.967 235.077 224.232 234.789 224.622 234.367C225.012 233.946 225.277 233.658 225.417 233.502C225.558 233.346 225.784 233.088 226.096 232.73C226.408 232.371 226.626 232.106 226.751 231.934C226.876 231.763 227.055 231.529 227.289 231.232C227.523 230.936 227.687 230.687 227.78 230.484C227.874 230.281 227.991 230.055 228.131 229.805C228.271 229.556 228.373 229.306 228.435 229.057C228.498 228.807 228.552 228.573 228.599 228.355C228.646 228.136 228.669 227.879 228.669 227.583C228.669 226.6 228.404 225.75 227.874 225.033C227.343 224.315 226.587 223.957 225.604 223.957C225.09 223.957 224.637 224.089 224.247 224.354C223.858 224.619 223.585 224.877 223.429 225.126C223.273 225.376 223.195 225.524 223.195 225.571C223.195 225.586 223.234 225.594 223.312 225.594C223.592 225.594 223.881 225.703 224.177 225.922C224.474 226.14 224.622 226.499 224.622 226.998C224.622 227.388 224.497 227.715 224.247 227.981C223.998 228.246 223.647 228.386 223.195 228.402Z" fill="black"/>
<path d="M225.959 210.973C225.959 210.796 226.014 210.642 226.124 210.51C226.235 210.377 226.4 210.311 226.621 210.311C226.775 210.311 226.908 210.366 227.018 210.477C227.128 210.565 227.238 210.774 227.349 211.105C227.569 211.921 228.022 212.55 228.705 212.991C228.948 213.146 229.069 213.344 229.069 213.587C229.069 213.786 229.036 213.918 228.97 213.984C228.904 214.05 228.75 214.15 228.507 214.282C227.558 214.767 226.731 215.462 226.025 216.367C225.981 216.411 225.926 216.477 225.86 216.565C225.794 216.653 225.738 216.72 225.694 216.764C225.65 216.808 225.595 216.83 225.529 216.83C225.463 216.83 225.385 216.841 225.297 216.863C225.143 216.863 224.999 216.808 224.867 216.698C224.735 216.587 224.657 216.422 224.635 216.201C224.635 215.782 225.154 215.131 226.191 214.249H220.532L214.874 214.216C214.587 214.017 214.443 213.808 214.443 213.587C214.443 213.433 214.587 213.212 214.874 212.925H226.753C226.224 212.087 225.959 211.436 225.959 210.973Z" fill="black"/>
</g>
<g clip-path="url(#clip1_8_226)">
<path d="M46.7611 49.9775C46.7832 49.9113 46.8052 49.8231 46.8273 49.7128C46.8493 49.6025 46.9045 49.3598 46.9927 48.9848C47.081 48.6098 47.1913 48.2678 47.3236 47.959C47.456 47.6501 47.6215 47.2862 47.82 46.867C48.0185 46.4479 48.2391 46.1169 48.4818 45.8743C48.7245 45.6316 49.0113 45.389 49.3422 45.1463C49.6731 44.9036 50.0371 44.8044 50.4342 44.8485C52.0887 44.8485 53.1476 45.5544 53.6109 46.9663L53.9418 46.6685C55.3095 45.4551 56.6111 44.8485 57.8465 44.8485C59.2804 44.8485 60.4055 45.3669 61.2217 46.4037C62.038 47.4406 62.4461 48.698 62.4461 50.1761C62.4461 52.5586 61.6078 54.7536 59.9312 56.7611C58.2546 58.7686 56.3574 59.7834 54.2396 59.8055C53.7543 59.8055 53.3241 59.7393 52.949 59.6069C52.7064 59.4966 52.4527 59.3312 52.188 59.1105C51.9232 58.8899 51.7137 58.7024 51.5592 58.548L51.3276 58.2833C51.3055 58.3053 51.0629 59.265 50.5996 61.1622C50.1363 63.0594 49.9047 64.019 49.9047 64.0411C49.9047 64.1734 49.9929 64.2506 50.1694 64.2727C50.3459 64.2948 50.754 64.3278 51.3938 64.372H52.2211C52.3534 64.5264 52.4196 64.6257 52.4196 64.6698C52.4196 64.7139 52.3865 64.9124 52.3203 65.2654C52.2541 65.5301 52.188 65.6956 52.1218 65.7618C52.0556 65.828 51.9122 65.8721 51.6916 65.8941C51.6475 65.8941 51.5261 65.8941 51.3276 65.8941C51.1291 65.8941 50.754 65.8831 50.2025 65.861C49.651 65.839 48.9671 65.828 48.1509 65.828C46.6067 65.828 45.625 65.85 45.2058 65.8941H44.9411C44.7867 65.7397 44.7095 65.6184 44.7095 65.5301C44.7536 64.9345 44.897 64.5484 45.1397 64.372H45.8015C46.5515 64.3499 46.9817 64.2175 47.092 63.9749C47.1582 63.8425 47.831 61.2063 49.1105 56.0662C50.39 50.9261 51.0629 48.2017 51.1291 47.8928C51.1511 47.7825 51.1622 47.6281 51.1622 47.4295C51.1622 46.5251 50.8864 46.0728 50.3349 46.0728C49.8496 46.0728 49.4414 46.3817 49.1105 46.9994C48.7796 47.6171 48.5259 48.2899 48.3494 49.0179C48.173 49.7459 48.0406 50.143 47.9524 50.2092C47.9082 50.2533 47.7318 50.2753 47.4229 50.2753H46.9596C46.8273 50.143 46.7611 50.0437 46.7611 49.9775ZM51.8901 56.0993C52.3755 57.7759 53.1917 58.6142 54.3389 58.6142C55.0007 58.6142 55.6404 58.3605 56.2581 57.8531C56.8758 57.3457 57.3832 56.706 57.7803 55.9338C58.1774 55.1838 58.5745 53.9925 58.9715 52.3601C59.3686 50.7276 59.5782 49.5143 59.6003 48.7201V48.5215C59.6003 46.8891 58.9274 46.0728 57.5817 46.0728C57.3391 46.0728 57.0964 46.1059 56.8537 46.1721C56.6111 46.2383 56.3684 46.3376 56.1258 46.4699C55.8831 46.6023 55.6625 46.7457 55.4639 46.9001C55.2654 47.0545 55.0779 47.22 54.9014 47.3965C54.7249 47.5729 54.5595 47.7384 54.405 47.8928C54.2506 48.0472 54.1293 48.2017 54.041 48.3561C53.9528 48.5105 53.8646 48.6208 53.7763 48.687L53.677 48.8194C53.677 48.8414 53.644 48.9958 53.5778 49.2826C53.5116 49.5694 53.3903 50.0547 53.2138 50.7386C53.0373 51.4225 52.8829 51.9961 52.7505 52.4593C52.1769 54.7977 51.8901 56.0111 51.8901 56.0993Z" fill="black"/>
<path d="M67.6278 50.9158L67.3237 51.0327C67.1053 51.1107 66.7934 51.1887 66.3878 51.2667C65.9823 51.3447 65.53 51.3993 65.0309 51.4305H64.5864V50.3543H65.0309C65.764 50.3231 66.4424 50.2061 67.0663 50.0034C67.6902 49.8006 68.1269 49.6134 68.3764 49.4419C68.626 49.2703 68.8443 49.0988 69.0315 48.9272C69.0627 48.8804 69.1563 48.857 69.3122 48.857C69.4526 48.857 69.5852 48.9038 69.71 48.9974V55.9925L69.7333 63.011C69.8425 63.1202 69.9361 63.1904 70.0141 63.2216C70.0921 63.2528 70.2792 63.284 70.5756 63.3152C70.8719 63.3464 71.3554 63.362 72.0261 63.362H72.6343V64.4381H72.377C72.0495 64.3914 70.8095 64.368 68.6572 64.368C66.536 64.368 65.3117 64.3914 64.9841 64.4381H64.7034V63.362H65.3117C65.6548 63.362 65.9511 63.362 66.2007 63.362C66.4502 63.362 66.6452 63.3542 66.7856 63.3386C66.9259 63.323 67.0507 63.2996 67.1599 63.2684C67.2691 63.2372 67.3315 63.2216 67.347 63.2216C67.3626 63.2216 67.4094 63.1826 67.4874 63.1046C67.5654 63.0266 67.6122 62.9954 67.6278 63.011V50.9158Z" fill="black"/>
<path d="M67.959 36.9729C67.959 36.7964 68.0141 36.642 68.1244 36.5096C68.2347 36.3773 68.4002 36.3111 68.6208 36.3111C68.7752 36.3111 68.9076 36.3662 69.0179 36.4765C69.1282 36.5648 69.2385 36.7744 69.3488 37.1053C69.5694 37.9215 70.0216 38.5502 70.7055 38.9914C70.9482 39.1459 71.0695 39.3444 71.0695 39.5871C71.0695 39.7856 71.0364 39.918 70.9702 39.9841C70.904 40.0503 70.7496 40.1496 70.507 40.282C69.5584 40.7673 68.7311 41.4622 68.0252 42.3667C67.981 42.4108 67.9259 42.477 67.8597 42.5652C67.7935 42.6535 67.7384 42.7196 67.6942 42.7638C67.6501 42.8079 67.595 42.8299 67.5288 42.8299C67.4626 42.8299 67.3854 42.841 67.2972 42.863C67.1427 42.863 66.9993 42.8079 66.867 42.6976C66.7346 42.5873 66.6574 42.4218 66.6353 42.2012C66.6353 41.7821 67.1538 41.1313 68.1906 40.2489H62.5321L56.8736 40.2158C56.5868 40.0172 56.4434 39.8077 56.4434 39.5871C56.4434 39.4326 56.5868 39.212 56.8736 38.9252H68.7531C68.2237 38.087 67.959 37.4362 67.959 36.9729Z" fill="black"/>
</g>
<path d="M179.26 160.2C179.26 160.88 179.4 161.49 179.68 162.03C179.96 162.57 180.32 162.98 180.76 163.26C181.2 163.54 181.63 163.77 182.05 163.95C182.47 164.13 182.82 164.26 183.1 164.34L183.55 164.4L183.61 164.37L184 163.14C184.36 161.98 184.69 160.99 184.99 160.17C185.29 159.35 185.68 158.47 186.16 157.53C186.64 156.59 187.12 155.83 187.6 155.25C188.08 154.67 188.67 154.19 189.37 153.81C190.07 153.43 190.8 153.24 191.56 153.24C192.46 153.24 193.26 153.56 193.96 154.2C194.66 154.84 195.02 155.92 195.04 157.44C195.04 159 194.61 160.5 193.75 161.94C192.89 163.38 191.71 164.55 190.21 165.45C188.71 166.35 187.13 166.8 185.47 166.8C184.95 166.8 184.69 166.82 184.69 166.86L184.48 167.94C184.36 168.64 184.22 169.41 184.06 170.25C183.9 171.09 183.79 171.63 183.73 171.87C183.63 172.35 183.37 172.68 182.95 172.86C182.73 172.98 182.48 173.04 182.2 173.04C181.58 172.98 181.27 172.65 181.27 172.05C181.27 171.85 181.82 170.02 182.92 166.56L182.77 166.5C182.67 166.46 182.53 166.41 182.35 166.35C182.17 166.29 181.95 166.2 181.69 166.08C181.43 165.96 181.17 165.82 180.91 165.66C180.65 165.5 180.38 165.32 180.1 165.12C179.82 164.92 179.56 164.67 179.32 164.37C179.08 164.07 178.85 163.75 178.63 163.41C178.41 163.07 178.26 162.68 178.18 162.24C178.1 161.8 178.04 161.32 178 160.8C178 159.84 178.26 158.63 178.78 157.17C179.3 155.71 180.03 154.51 180.97 153.57H181.36C181.78 153.57 181.99 153.65 181.99 153.81C181.99 153.93 181.91 154.07 181.75 154.23C180.93 155.19 180.32 156.28 179.92 157.5C179.52 158.72 179.3 159.62 179.26 160.2ZM193.72 158.16C193.72 157.32 193.48 156.66 193 156.18C192.52 155.7 191.88 155.45 191.08 155.43C190.1 155.43 189.18 155.83 188.32 156.63C187.46 157.43 186.75 158.54 186.19 159.96C185.91 160.64 185.63 161.73 185.35 163.23L185.08 164.58C185.44 164.62 185.64 164.64 185.68 164.64C188.02 164.64 189.94 163.95 191.44 162.57C192.94 161.19 193.7 159.72 193.72 158.16Z" fill="black"/>
<path d="M198.94 159C198.94 157.62 199.04 156.31 199.24 155.07C199.44 153.83 199.67 152.76 199.93 151.86C200.19 150.96 200.56 150.08 201.04 149.22C201.52 148.36 201.9 147.69 202.18 147.21C202.46 146.73 202.88 146.21 203.44 145.65C204 145.09 204.33 144.75 204.43 144.63C204.53 144.51 204.78 144.3 205.18 144H205.57H205.69C205.97 144 206.11 144.09 206.11 144.27C206.11 144.33 205.94 144.54 205.6 144.9C205.26 145.26 204.85 145.79 204.37 146.49C203.89 147.19 203.4 148.05 202.9 149.07C202.4 150.09 201.98 151.47 201.64 153.21C201.3 154.95 201.13 156.88 201.13 159C201.13 161.12 201.3 163.04 201.64 164.76C201.98 166.48 202.39 167.87 202.87 168.93C203.35 169.99 203.84 170.85 204.34 171.51C204.84 172.17 205.26 172.7 205.6 173.1C205.94 173.5 206.11 173.71 206.11 173.73C206.11 173.91 205.96 174 205.66 174H205.57H205.18L204.34 173.28C202.46 171.58 201.09 169.46 200.23 166.92C199.37 164.38 198.94 161.74 198.94 159Z" fill="black"/>
<path d="M209.35 157.83C209.49 156.99 210.03 156.02 210.97 154.92C211.91 153.82 213.07 153.26 214.45 153.24C215.15 153.24 215.79 153.42 216.37 153.78C216.95 154.14 217.38 154.59 217.66 155.13C218.5 153.87 219.51 153.24 220.69 153.24C221.43 153.24 222.07 153.46 222.61 153.9C223.15 154.34 223.43 154.93 223.45 155.67C223.45 156.25 223.31 156.72 223.03 157.08C222.75 157.44 222.48 157.66 222.22 157.74C221.96 157.82 221.73 157.86 221.53 157.86C221.15 157.86 220.84 157.75 220.6 157.53C220.36 157.31 220.24 157.02 220.24 156.66C220.24 155.74 220.74 155.11 221.74 154.77C221.52 154.51 221.12 154.38 220.54 154.38C220.28 154.38 220.09 154.4 219.97 154.44C219.21 154.76 218.65 155.42 218.29 156.42C217.09 160.84 216.49 163.42 216.49 164.16C216.49 164.72 216.65 165.12 216.97 165.36C217.29 165.6 217.64 165.72 218.02 165.72C218.76 165.72 219.49 165.39 220.21 164.73C220.93 164.07 221.42 163.26 221.68 162.3C221.74 162.1 221.8 161.99 221.86 161.97C221.92 161.95 222.08 161.93 222.34 161.91H222.46C222.76 161.91 222.91 161.99 222.91 162.15C222.91 162.17 222.89 162.28 222.85 162.48C222.53 163.62 221.91 164.63 220.99 165.51C220.07 166.39 219 166.83 217.78 166.83C216.38 166.83 215.32 166.2 214.6 164.94C213.78 166.18 212.84 166.8 211.78 166.8H211.6C210.62 166.8 209.92 166.54 209.5 166.02C209.08 165.5 208.86 164.95 208.84 164.37C208.84 163.73 209.03 163.21 209.41 162.81C209.79 162.41 210.24 162.21 210.76 162.21C211.62 162.21 212.05 162.63 212.05 163.47C212.05 163.87 211.93 164.22 211.69 164.52C211.45 164.82 211.22 165.02 211 165.12C210.78 165.22 210.65 165.27 210.61 165.27L210.52 165.3C210.52 165.32 210.58 165.36 210.7 165.42C210.82 165.48 210.98 165.55 211.18 165.63C211.38 165.71 211.57 165.74 211.75 165.72C212.47 165.72 213.09 165.27 213.61 164.37C213.79 164.05 214.02 163.37 214.3 162.33C214.58 161.29 214.86 160.21 215.14 159.09C215.42 157.97 215.58 157.31 215.62 157.11C215.72 156.57 215.77 156.18 215.77 155.94C215.77 155.38 215.62 154.98 215.32 154.74C215.02 154.5 214.68 154.38 214.3 154.38C213.5 154.38 212.75 154.7 212.05 155.34C211.35 155.98 210.86 156.8 210.58 157.8C210.54 157.98 210.49 158.08 210.43 158.1C210.37 158.12 210.21 158.14 209.95 158.16H209.53C209.41 158.04 209.35 157.93 209.35 157.83Z" fill="black"/>
<path d="M221.014 146.1C221.014 145.94 221.064 145.8 221.164 145.68C221.264 145.56 221.414 145.5 221.614 145.5C221.754 145.5 221.874 145.55 221.974 145.65C222.074 145.73 222.174 145.92 222.274 146.22C222.474 146.96 222.884 147.53 223.504 147.93C223.724 148.07 223.834 148.25 223.834 148.47C223.834 148.65 223.804 148.77 223.744 148.83C223.684 148.89 223.544 148.98 223.324 149.1C222.464 149.54 221.714 150.17 221.074 150.99C221.034 151.03 220.984 151.09 220.924 151.17C220.864 151.25 220.814 151.31 220.774 151.35C220.734 151.39 220.684 151.41 220.624 151.41C220.564 151.41 220.494 151.42 220.414 151.44C220.274 151.44 220.144 151.39 220.024 151.29C219.904 151.19 219.834 151.04 219.814 150.84C219.814 150.46 220.284 149.87 221.224 149.07H216.094L210.964 149.04C210.704 148.86 210.574 148.67 210.574 148.47C210.574 148.33 210.704 148.13 210.964 147.87H221.734C221.254 147.11 221.014 146.52 221.014 146.1Z" fill="black"/>
<path d="M226.75 144.03L226.87 144C226.97 144 227.07 144 227.17 144H227.53L228.37 144.72C230.25 146.42 231.62 148.54 232.48 151.08C233.34 153.62 233.77 156.26 233.77 159C233.77 160.36 233.67 161.67 233.47 162.93C233.27 164.19 233.04 165.26 232.78 166.14C232.52 167.02 232.15 167.9 231.67 168.78C231.19 169.66 230.81 170.33 230.53 170.79C230.25 171.25 229.84 171.76 229.3 172.32C228.76 172.88 228.44 173.21 228.34 173.31C228.24 173.41 228.01 173.6 227.65 173.88C227.59 173.94 227.55 173.98 227.53 174H227.17C227.01 174 226.9 174 226.84 174C226.78 174 226.73 173.97 226.69 173.91C226.65 173.85 226.62 173.76 226.6 173.64C226.62 173.62 226.73 173.49 226.93 173.25C230.03 170.03 231.58 165.28 231.58 159C231.58 152.72 230.03 147.97 226.93 144.75C226.73 144.51 226.62 144.38 226.6 144.36C226.6 144.2 226.65 144.09 226.75 144.03Z" fill="black"/>
<path d="M31.7171 133.064C31.6706 133.064 31.6086 133.064 31.5312 133.064C31.1439 133.064 30.9115 133.056 30.8341 133.041C30.7566 133.025 30.7179 132.94 30.7179 132.785C30.7179 132.367 30.8031 132.111 30.9735 132.018C31.0045 132.003 31.7558 131.995 33.2274 131.995C34.4203 131.995 35.1019 131.995 35.2723 131.995C35.4427 131.995 35.5511 132.042 35.5976 132.135C38.8662 139.818 40.5315 143.761 40.5935 143.962L41.8483 139.013C42.6693 135.744 43.0798 134.001 43.0798 133.784C43.0798 133.366 42.5841 133.126 41.5927 133.064C41.2209 133.064 41.035 132.979 41.035 132.808C41.035 132.777 41.0505 132.684 41.0815 132.53C41.1434 132.282 41.1899 132.135 41.2209 132.088C41.2519 132.042 41.3293 132.011 41.4533 131.995C41.4997 131.995 41.7398 132.003 42.1736 132.018C42.6073 132.034 43.2502 132.049 44.1022 132.065C44.8768 132.065 45.4655 132.057 45.8682 132.042C46.271 132.026 46.5034 132.018 46.5653 132.018C46.7977 132.018 46.9139 132.096 46.9139 132.251C46.9139 132.592 46.8519 132.824 46.728 132.948C46.697 133.025 46.5266 133.064 46.2168 133.064C45.1169 133.126 44.4276 133.436 44.1487 133.993L40.6864 147.703C40.6555 147.812 40.4928 147.866 40.1985 147.866C39.9816 147.866 39.8499 147.85 39.8034 147.819C39.757 147.773 38.7578 145.426 36.8059 140.779L33.8548 133.831L32.3444 139.872C31.3375 143.838 30.8341 145.891 30.8341 146.03C30.9115 146.541 31.4692 146.797 32.5071 146.797H32.7395C32.8324 146.874 32.8789 146.936 32.8789 146.983C32.8789 147.029 32.8634 147.176 32.8324 147.424C32.7705 147.626 32.693 147.773 32.6001 147.866H32.298C31.8178 147.835 30.9812 147.819 29.7884 147.819C29.3547 147.819 28.9596 147.819 28.6033 147.819C28.247 147.819 27.9605 147.819 27.7436 147.819C27.5267 147.819 27.395 147.827 27.3486 147.843C27.1162 147.843 27 147.773 27 147.633C27 147.571 27.0232 147.448 27.0697 147.262C27.1162 147.076 27.1549 146.967 27.1859 146.936C27.2169 146.843 27.395 146.797 27.7203 146.797C28.7737 146.75 29.4553 146.448 29.7652 145.891C29.8271 145.798 30.3771 143.652 31.415 139.454L32.9951 133.134C32.9641 133.118 32.5381 133.095 31.7171 133.064Z" fill="#D43232"/>
<path d="M42.966 126.465C42.966 126.341 43.0047 126.232 43.0821 126.139C43.1596 126.046 43.2758 126 43.4307 126C43.5391 126 43.6321 126.039 43.7095 126.116C43.787 126.178 43.8644 126.325 43.9419 126.558C44.0968 127.131 44.4144 127.572 44.8946 127.882C45.065 127.991 45.1502 128.13 45.1502 128.3C45.1502 128.44 45.127 128.533 45.0805 128.579C45.034 128.626 44.9256 128.695 44.7552 128.788C44.0891 129.129 43.5082 129.617 43.0124 130.252C42.9815 130.283 42.9427 130.33 42.8963 130.392C42.8498 130.454 42.8111 130.5 42.7801 130.531C42.7491 130.562 42.7104 130.578 42.6639 130.578C42.6174 130.578 42.5632 130.585 42.5012 130.601C42.3928 130.601 42.2921 130.562 42.1992 130.485C42.1062 130.407 42.052 130.291 42.0365 130.136C42.0365 129.842 42.4005 129.385 43.1286 128.765H39.1551L35.1817 128.742C34.9803 128.603 34.8796 128.455 34.8796 128.3C34.8796 128.192 34.9803 128.037 35.1817 127.836H43.5236C43.1519 127.247 42.966 126.79 42.966 126.465Z" fill="#D43232"/>
<path d="M54.6703 139.803C54.6703 139.601 54.7788 139.446 54.9956 139.338H69.7974C70.0298 139.462 70.146 139.617 70.146 139.803C70.146 139.973 70.0375 140.12 69.8207 140.244L62.4314 140.267H55.0421C54.7942 140.19 54.6703 140.035 54.6703 139.803ZM54.6703 144.311C54.6703 144.078 54.7942 143.923 55.0421 143.846H69.8207C70.0375 144.001 70.146 144.156 70.146 144.311C70.146 144.512 70.0298 144.667 69.7974 144.775H54.9956C54.7788 144.667 54.6703 144.512 54.6703 144.311Z" fill="#D43232"/>
<path d="M78.9713 132.158C78.9713 132.111 79.01 132.057 79.0875 131.995H96.0503C96.1277 132.057 96.1665 132.111 96.1665 132.158C96.1665 132.189 94.8575 134.9 92.2395 140.291C89.6215 145.682 88.2815 148.408 88.2195 148.47C88.142 148.578 87.9252 148.633 87.5689 148.633C87.2126 148.633 86.9957 148.578 86.9182 148.47C86.8718 148.408 85.5395 145.682 82.9215 140.291C80.3035 134.9 78.9868 132.189 78.9713 132.158ZM94.0984 134.017C94.0984 134.001 92.1465 133.993 88.2427 133.993C84.339 133.993 82.3871 134.001 82.3871 134.017C82.4181 134.094 83.394 136.108 85.3149 140.058C87.2358 144.008 88.2118 145.991 88.2427 146.007L94.0984 134.017Z" fill="#D43232"/>
<path d="M99.3964 142.986C99.3964 143.513 99.5048 143.985 99.7217 144.404C99.9386 144.822 100.217 145.139 100.558 145.356C100.899 145.573 101.232 145.751 101.557 145.891C101.883 146.03 102.154 146.131 102.371 146.193L102.719 146.239L102.766 146.216L103.068 145.263C103.347 144.365 103.602 143.598 103.835 142.963C104.067 142.328 104.369 141.646 104.741 140.918C105.113 140.19 105.484 139.601 105.856 139.152C106.228 138.703 106.685 138.331 107.227 138.037C107.769 137.742 108.335 137.595 108.923 137.595C109.621 137.595 110.24 137.843 110.782 138.339C111.325 138.834 111.603 139.671 111.619 140.848C111.619 142.057 111.286 143.218 110.62 144.334C109.954 145.449 109.04 146.355 107.878 147.053C106.716 147.75 105.492 148.098 104.206 148.098C103.804 148.098 103.602 148.114 103.602 148.145L103.44 148.981C103.347 149.523 103.238 150.12 103.114 150.77C102.99 151.421 102.905 151.839 102.859 152.025C102.781 152.397 102.58 152.653 102.255 152.792C102.084 152.885 101.89 152.931 101.674 152.931C101.193 152.885 100.953 152.629 100.953 152.165C100.953 152.01 101.379 150.592 102.231 147.912L102.115 147.866C102.038 147.835 101.929 147.796 101.79 147.75C101.65 147.703 101.48 147.633 101.279 147.54C101.077 147.448 100.876 147.339 100.674 147.215C100.473 147.091 100.264 146.952 100.047 146.797C99.8301 146.642 99.6288 146.448 99.4429 146.216C99.257 145.984 99.0788 145.736 98.9084 145.472C98.738 145.209 98.6218 144.907 98.5599 144.566C98.4979 144.225 98.4514 143.854 98.4204 143.451C98.4204 142.707 98.6218 141.77 99.0246 140.639C99.4274 139.508 99.9928 138.579 100.721 137.851H101.023C101.348 137.851 101.511 137.913 101.511 138.037C101.511 138.13 101.449 138.238 101.325 138.362C100.69 139.106 100.217 139.95 99.9076 140.895C99.5978 141.84 99.4274 142.537 99.3964 142.986ZM110.596 141.406C110.596 140.755 110.411 140.244 110.039 139.872C109.667 139.501 109.171 139.307 108.552 139.291C107.793 139.291 107.08 139.601 106.414 140.221C105.748 140.841 105.198 141.7 104.764 142.8C104.547 143.327 104.33 144.171 104.113 145.333L103.904 146.379C104.183 146.41 104.338 146.425 104.369 146.425C106.182 146.425 107.669 145.891 108.83 144.822C109.992 143.753 110.581 142.614 110.596 141.406Z" fill="#D43232"/>
<path d="M114.64 142.057C114.64 140.988 114.717 139.973 114.872 139.013C115.027 138.052 115.205 137.223 115.406 136.526C115.608 135.829 115.894 135.148 116.266 134.481C116.638 133.815 116.932 133.296 117.149 132.925C117.366 132.553 117.691 132.15 118.125 131.716C118.559 131.282 118.815 131.019 118.892 130.926C118.969 130.833 119.163 130.671 119.473 130.438H119.775H119.868C120.085 130.438 120.193 130.508 120.193 130.647C120.193 130.694 120.062 130.856 119.798 131.135C119.535 131.414 119.217 131.825 118.846 132.367C118.474 132.909 118.094 133.575 117.707 134.365C117.32 135.155 116.994 136.224 116.731 137.572C116.468 138.92 116.336 140.415 116.336 142.057C116.336 143.699 116.468 145.186 116.731 146.518C116.994 147.85 117.312 148.927 117.684 149.748C118.055 150.569 118.435 151.235 118.822 151.746C119.21 152.258 119.535 152.668 119.798 152.978C120.062 153.288 120.193 153.45 120.193 153.466C120.193 153.605 120.077 153.675 119.845 153.675H119.775H119.473L118.822 153.117C117.366 151.801 116.305 150.158 115.639 148.191C114.973 146.224 114.64 144.179 114.64 142.057Z" fill="#D43232"/>
<path d="M122.703 141.15C122.811 140.5 123.23 139.748 123.958 138.896C124.686 138.044 125.584 137.611 126.653 137.595C127.195 137.595 127.691 137.735 128.14 138.013C128.589 138.292 128.923 138.641 129.139 139.059C129.79 138.083 130.572 137.595 131.486 137.595C132.059 137.595 132.555 137.766 132.973 138.106C133.392 138.447 133.609 138.904 133.624 139.477C133.624 139.927 133.516 140.291 133.299 140.569C133.082 140.848 132.873 141.019 132.671 141.081C132.47 141.143 132.292 141.174 132.137 141.174C131.843 141.174 131.602 141.088 131.417 140.918C131.231 140.748 131.138 140.523 131.138 140.244C131.138 139.532 131.525 139.044 132.3 138.78C132.129 138.579 131.819 138.478 131.37 138.478C131.169 138.478 131.022 138.494 130.929 138.525C130.34 138.772 129.906 139.284 129.627 140.058C128.698 143.482 128.233 145.48 128.233 146.053C128.233 146.487 128.357 146.797 128.605 146.983C128.853 147.169 129.124 147.262 129.418 147.262C129.991 147.262 130.557 147.006 131.115 146.495C131.672 145.984 132.052 145.356 132.253 144.613C132.3 144.458 132.346 144.373 132.393 144.357C132.439 144.342 132.563 144.326 132.764 144.311H132.857C133.09 144.311 133.206 144.373 133.206 144.496C133.206 144.512 133.19 144.597 133.159 144.752C132.911 145.635 132.431 146.417 131.719 147.099C131.006 147.781 130.177 148.121 129.232 148.121C128.148 148.121 127.327 147.633 126.769 146.657C126.134 147.618 125.406 148.098 124.585 148.098H124.446C123.687 148.098 123.144 147.897 122.819 147.494C122.494 147.091 122.323 146.665 122.308 146.216C122.308 145.72 122.455 145.317 122.749 145.008C123.044 144.698 123.392 144.543 123.795 144.543C124.461 144.543 124.794 144.868 124.794 145.519C124.794 145.829 124.701 146.1 124.515 146.332C124.329 146.565 124.151 146.719 123.981 146.797C123.81 146.874 123.71 146.913 123.679 146.913L123.609 146.936C123.609 146.952 123.656 146.983 123.748 147.029C123.841 147.076 123.965 147.13 124.12 147.192C124.275 147.254 124.422 147.277 124.562 147.262C125.119 147.262 125.6 146.913 126.002 146.216C126.142 145.968 126.32 145.441 126.537 144.636C126.754 143.83 126.971 142.994 127.188 142.126C127.404 141.259 127.528 140.748 127.559 140.593C127.637 140.174 127.675 139.872 127.675 139.686C127.675 139.253 127.559 138.943 127.327 138.757C127.095 138.571 126.831 138.478 126.537 138.478C125.917 138.478 125.336 138.726 124.794 139.222C124.252 139.717 123.872 140.353 123.656 141.127C123.625 141.267 123.586 141.344 123.539 141.359C123.493 141.375 123.369 141.39 123.168 141.406H122.842C122.749 141.313 122.703 141.228 122.703 141.15Z" fill="#D43232"/>
<path d="M131.737 132.065C131.737 131.941 131.776 131.832 131.853 131.739C131.931 131.647 132.047 131.6 132.202 131.6C132.31 131.6 132.403 131.639 132.481 131.716C132.558 131.778 132.636 131.925 132.713 132.158C132.868 132.731 133.186 133.172 133.666 133.482C133.836 133.591 133.922 133.73 133.922 133.9C133.922 134.04 133.898 134.133 133.852 134.179C133.805 134.226 133.697 134.296 133.526 134.388C132.86 134.729 132.279 135.217 131.784 135.852C131.753 135.883 131.714 135.93 131.668 135.992C131.621 136.054 131.582 136.1 131.551 136.131C131.52 136.162 131.482 136.178 131.435 136.178C131.389 136.178 131.334 136.185 131.273 136.201C131.164 136.201 131.063 136.162 130.97 136.085C130.878 136.007 130.823 135.891 130.808 135.736C130.808 135.442 131.172 134.985 131.9 134.365H127.926L123.953 134.342C123.752 134.203 123.651 134.055 123.651 133.9C123.651 133.792 123.752 133.637 123.953 133.436H132.295C131.923 132.847 131.737 132.39 131.737 132.065Z" fill="#D43232"/>
<path d="M136.18 130.461L136.273 130.438C136.351 130.438 136.428 130.438 136.505 130.438H136.784L137.435 130.996C138.891 132.313 139.952 133.955 140.618 135.922C141.284 137.889 141.618 139.934 141.618 142.057C141.618 143.11 141.54 144.125 141.385 145.101C141.23 146.077 141.052 146.905 140.851 147.587C140.649 148.269 140.363 148.95 139.991 149.632C139.619 150.313 139.325 150.832 139.108 151.189C138.891 151.545 138.574 151.94 138.155 152.374C137.737 152.807 137.489 153.063 137.412 153.141C137.334 153.218 137.156 153.365 136.877 153.582C136.831 153.628 136.8 153.659 136.784 153.675H136.505C136.382 153.675 136.296 153.675 136.25 153.675C136.203 153.675 136.165 153.652 136.134 153.605C136.103 153.559 136.079 153.489 136.064 153.396C136.079 153.381 136.165 153.28 136.32 153.094C138.721 150.6 139.921 146.921 139.921 142.057C139.921 137.192 138.721 133.513 136.32 131.019C136.165 130.833 136.079 130.733 136.064 130.717C136.064 130.593 136.103 130.508 136.18 130.461Z" fill="#D43232"/>
<defs>
<linearGradient id="paint0_linear_8_226" x1="110" y1="0" x2="110" y2="210" gradientUnits="userSpaceOnUse">
<stop stop-color="#D9D9D9"/>
<stop offset="1" stop-color="#737373" stop-opacity="0"/>
</linearGradient>
<linearGradient id="paint1_linear_8_226" x1="201" y1="139" x2="201" y2="287" gradientUnits="userSpaceOnUse">
<stop stop-color="#D9D9D9"/>
<stop offset="1" stop-color="#737373" stop-opacity="0"/>
</linearGradient>
<clipPath id="clip0_8_226">
<rect width="30" height="32.8961" fill="white" transform="translate(204 207)"/>
</clipPath>
<clipPath id="clip1_8_226">
<rect width="30" height="32.8961" fill="white" transform="translate(46 33)"/>
</clipPath>
</defs>
</svg>
