<svg width="430" height="232" viewBox="0 0 430 232" fill="none" xmlns="http://www.w3.org/2000/svg">
<path d="M151 74C151 114.292 117.447 147 76 147C34.5533 147 1 114.292 1 74C1 33.7082 34.5533 1 76 1C117.447 1 151 33.7082 151 74Z" fill="url(#paint0_linear_6_12)" stroke="black" stroke-width="2"/>
<path d="M222 158C222 198.292 188.447 231 147 231C105.553 231 72 198.292 72 158C72 117.708 105.553 85 147 85C188.447 85 222 117.708 222 158Z" fill="url(#paint1_linear_6_12)" stroke="black" stroke-width="2"/>
<circle cx="152.5" cy="157.5" r="2.5" fill="black"/>
<circle cx="75.5" cy="73.5" r="2.5" fill="black"/>
<line x1="76.3686" y1="73.6621" x2="153.369" y2="157.662" stroke="black"/>
<g clip-path="url(#clip0_6_12)">
<path d="M155.262 102.334C155.282 102.334 156.021 102.284 157.477 102.185C158.933 102.085 159.682 102.026 159.723 102.006C159.969 102.006 160.092 102.085 160.092 102.244C160.092 102.383 159.344 105.385 157.846 111.248C156.349 117.111 155.579 120.102 155.538 120.222C155.497 120.341 155.487 120.49 155.508 120.669C155.508 121.504 155.795 121.921 156.369 121.921C156.554 121.901 156.759 121.812 156.985 121.653C157.415 121.255 157.836 120.301 158.246 118.791C158.369 118.393 158.472 118.184 158.554 118.165C158.595 118.145 158.697 118.135 158.862 118.135H158.985H159.108C159.415 118.135 159.569 118.214 159.569 118.373C159.569 118.473 159.538 118.632 159.477 118.85C159.21 119.844 158.903 120.649 158.554 121.265C158.205 121.881 157.918 122.279 157.692 122.458C157.467 122.636 157.179 122.795 156.831 122.935C156.667 122.974 156.421 122.994 156.092 122.994C155.395 122.994 154.81 122.845 154.338 122.547C153.867 122.249 153.559 121.941 153.415 121.623L153.231 121.176C153.21 121.156 153.169 121.166 153.108 121.205C153.067 121.245 153.026 121.285 152.985 121.325C151.774 122.438 150.544 122.994 149.292 122.994C148.164 122.994 147.169 122.597 146.308 121.802C145.446 121.007 145.015 119.745 145.015 118.015C145.015 117.061 145.221 116.088 145.631 115.094C146.041 114.1 146.533 113.245 147.108 112.53C148.072 111.397 149.036 110.612 150 110.175C150.964 109.737 151.836 109.519 152.615 109.519C153.764 109.519 154.626 109.936 155.2 110.771C155.303 110.89 155.354 110.93 155.354 110.89C155.374 110.811 155.651 109.727 156.185 107.64C156.718 105.554 157.005 104.45 157.046 104.331C157.046 104.073 156.974 103.914 156.831 103.854C156.687 103.795 156.287 103.745 155.631 103.705H154.985C154.862 103.586 154.8 103.506 154.8 103.467C154.8 103.427 154.821 103.238 154.862 102.9C154.964 102.523 155.097 102.334 155.262 102.334ZM154.831 112.977C154.359 111.407 153.59 110.622 152.523 110.622C151.805 110.622 151.118 110.93 150.462 111.546C149.805 112.162 149.292 112.967 148.923 113.961C148.328 115.531 147.908 117.161 147.662 118.85C147.662 118.91 147.662 119.019 147.662 119.178C147.662 119.337 147.651 119.456 147.631 119.536C147.631 120.43 147.815 121.046 148.185 121.384C148.554 121.722 148.995 121.901 149.508 121.921C150.615 121.921 151.754 121.205 152.923 119.774L153.169 119.446L154.831 112.977Z" fill="black"/>
</g>
<g clip-path="url(#clip1_6_12)">
<path d="M150.761 168.978C150.783 168.911 150.805 168.823 150.827 168.713C150.849 168.602 150.904 168.36 150.993 167.985C151.081 167.61 151.191 167.268 151.324 166.959C151.456 166.65 151.621 166.286 151.82 165.867C152.019 165.448 152.239 165.117 152.482 164.874C152.724 164.632 153.011 164.389 153.342 164.146C153.673 163.904 154.037 163.804 154.434 163.848C156.089 163.848 157.148 164.554 157.611 165.966L157.942 165.668C159.31 164.455 160.611 163.848 161.846 163.848C163.28 163.848 164.405 164.367 165.222 165.404C166.038 166.441 166.446 167.698 166.446 169.176C166.446 171.559 165.608 173.754 163.931 175.761C162.255 177.769 160.357 178.783 158.24 178.805C157.754 178.805 157.324 178.739 156.949 178.607C156.706 178.497 156.453 178.331 156.188 178.111C155.923 177.89 155.714 177.702 155.559 177.548L155.328 177.283C155.306 177.305 155.063 178.265 154.6 180.162C154.136 182.059 153.905 183.019 153.905 183.041C153.905 183.173 153.993 183.251 154.169 183.273C154.346 183.295 154.754 183.328 155.394 183.372H156.221C156.353 183.526 156.42 183.626 156.42 183.67C156.42 183.714 156.386 183.912 156.32 184.265C156.254 184.53 156.188 184.696 156.122 184.762C156.056 184.828 155.912 184.872 155.692 184.894C155.647 184.894 155.526 184.894 155.328 184.894C155.129 184.894 154.754 184.883 154.203 184.861C153.651 184.839 152.967 184.828 152.151 184.828C150.607 184.828 149.625 184.85 149.206 184.894H148.941C148.787 184.74 148.709 184.618 148.709 184.53C148.754 183.935 148.897 183.548 149.14 183.372H149.801C150.552 183.35 150.982 183.218 151.092 182.975C151.158 182.843 151.831 180.206 153.111 175.066C154.39 169.926 155.063 167.202 155.129 166.893C155.151 166.783 155.162 166.628 155.162 166.43C155.162 165.525 154.886 165.073 154.335 165.073C153.85 165.073 153.441 165.382 153.111 165.999C152.78 166.617 152.526 167.29 152.349 168.018C152.173 168.746 152.041 169.143 151.952 169.209C151.908 169.253 151.732 169.275 151.423 169.275H150.96C150.827 169.143 150.761 169.044 150.761 168.978ZM155.89 175.099C156.375 176.776 157.192 177.614 158.339 177.614C159.001 177.614 159.64 177.36 160.258 176.853C160.876 176.346 161.383 175.706 161.78 174.934C162.177 174.184 162.574 172.993 162.972 171.36C163.369 169.728 163.578 168.514 163.6 167.72V167.522C163.6 165.889 162.927 165.073 161.582 165.073C161.339 165.073 161.096 165.106 160.854 165.172C160.611 165.238 160.368 165.338 160.126 165.47C159.883 165.602 159.662 165.746 159.464 165.9C159.265 166.055 159.078 166.22 158.901 166.396C158.725 166.573 158.559 166.738 158.405 166.893C158.251 167.047 158.129 167.202 158.041 167.356C157.953 167.511 157.865 167.621 157.776 167.687L157.677 167.819C157.677 167.841 157.644 167.996 157.578 168.283C157.512 168.569 157.39 169.055 157.214 169.739C157.037 170.422 156.883 170.996 156.75 171.459C156.177 173.798 155.89 175.011 155.89 175.099Z" fill="black"/>
<path d="M169.195 173.402C168.774 173.402 168.438 173.261 168.189 172.981C167.939 172.7 167.814 172.357 167.814 171.951C167.814 170.844 168.228 169.885 169.054 169.074C169.881 168.263 170.91 167.857 172.142 167.857C173.562 167.857 174.747 168.294 175.699 169.167C176.65 170.041 177.133 171.171 177.149 172.559C177.149 173.23 176.993 173.87 176.681 174.478C176.369 175.086 175.995 175.616 175.558 176.069C175.121 176.521 174.498 177.098 173.687 177.8C173.125 178.283 172.345 179.001 171.347 179.952L169.967 181.262L171.745 181.286C174.193 181.286 175.496 181.247 175.652 181.169C175.761 181.138 175.948 180.444 176.213 179.087V179.016H177.149V179.087C177.133 179.133 177.032 179.843 176.845 181.216C176.658 182.588 176.541 183.306 176.494 183.368V183.438H167.814V182.994V182.713C167.814 182.604 167.861 182.487 167.955 182.362C168.048 182.237 168.282 181.964 168.657 181.543C169.109 181.044 169.499 180.607 169.826 180.233C169.967 180.077 170.232 179.789 170.622 179.367C171.012 178.946 171.277 178.658 171.417 178.502C171.558 178.346 171.784 178.088 172.096 177.73C172.408 177.371 172.626 177.106 172.751 176.934C172.876 176.763 173.055 176.529 173.289 176.232C173.523 175.936 173.687 175.687 173.78 175.484C173.874 175.281 173.991 175.055 174.131 174.805C174.271 174.556 174.373 174.306 174.435 174.057C174.498 173.807 174.552 173.573 174.599 173.355C174.646 173.136 174.669 172.879 174.669 172.583C174.669 171.6 174.404 170.75 173.874 170.033C173.343 169.315 172.587 168.957 171.604 168.957C171.09 168.957 170.637 169.089 170.247 169.354C169.858 169.619 169.585 169.877 169.429 170.126C169.273 170.376 169.195 170.524 169.195 170.571C169.195 170.586 169.234 170.594 169.312 170.594C169.592 170.594 169.881 170.703 170.177 170.922C170.474 171.14 170.622 171.499 170.622 171.998C170.622 172.388 170.497 172.715 170.247 172.981C169.998 173.246 169.647 173.386 169.195 173.402Z" fill="black"/>
<path d="M171.959 155.973C171.959 155.796 172.014 155.642 172.124 155.51C172.235 155.377 172.4 155.311 172.621 155.311C172.775 155.311 172.908 155.366 173.018 155.477C173.128 155.565 173.238 155.774 173.349 156.105C173.569 156.921 174.022 157.55 174.705 157.991C174.948 158.146 175.069 158.344 175.069 158.587C175.069 158.786 175.036 158.918 174.97 158.984C174.904 159.05 174.75 159.15 174.507 159.282C173.558 159.767 172.731 160.462 172.025 161.367C171.981 161.411 171.926 161.477 171.86 161.565C171.794 161.653 171.738 161.72 171.694 161.764C171.65 161.808 171.595 161.83 171.529 161.83C171.463 161.83 171.385 161.841 171.297 161.863C171.143 161.863 170.999 161.808 170.867 161.698C170.735 161.587 170.657 161.422 170.635 161.201C170.635 160.782 171.154 160.131 172.191 159.249H166.532L160.874 159.216C160.587 159.017 160.443 158.808 160.443 158.587C160.443 158.433 160.587 158.212 160.874 157.925H172.753C172.224 157.087 171.959 156.436 171.959 155.973Z" fill="black"/>
</g>
<g clip-path="url(#clip2_6_12)">
<path d="M46.7611 49.9775C46.7831 49.9113 46.8052 49.8231 46.8273 49.7128C46.8493 49.6025 46.9045 49.3598 46.9927 48.9848C47.081 48.6098 47.1913 48.2678 47.3236 47.959C47.456 47.6501 47.6214 47.2862 47.82 46.867C48.0185 46.4479 48.2391 46.1169 48.4818 45.8743C48.7245 45.6316 49.0112 45.389 49.3422 45.1463C49.6731 44.9036 50.0371 44.8044 50.4341 44.8485C52.0887 44.8485 53.1476 45.5544 53.6108 46.9663L53.9418 46.6685C55.3095 45.4551 56.6111 44.8485 57.8465 44.8485C59.2804 44.8485 60.4055 45.3669 61.2217 46.4037C62.0379 47.4406 62.4461 48.698 62.4461 50.1761C62.4461 52.5586 61.6078 54.7536 59.9312 56.7611C58.2546 58.7686 56.3574 59.7834 54.2396 59.8055C53.7542 59.8055 53.3241 59.7393 52.949 59.6069C52.7064 59.4966 52.4527 59.3312 52.1879 59.1105C51.9232 58.8899 51.7136 58.7024 51.5592 58.548L51.3276 58.2833C51.3055 58.3053 51.0629 59.265 50.5996 61.1622C50.1363 63.0594 49.9047 64.019 49.9047 64.0411C49.9047 64.1734 49.9929 64.2506 50.1694 64.2727C50.3459 64.2948 50.754 64.3278 51.3938 64.372H52.221C52.3534 64.5264 52.4196 64.6257 52.4196 64.6698C52.4196 64.7139 52.3865 64.9124 52.3203 65.2654C52.2541 65.5301 52.1879 65.6956 52.1218 65.7618C52.0556 65.828 51.9122 65.8721 51.6916 65.8941C51.6475 65.8941 51.5261 65.8941 51.3276 65.8941C51.129 65.8941 50.754 65.8831 50.2025 65.861C49.651 65.839 48.9671 65.828 48.1509 65.828C46.6067 65.828 45.625 65.85 45.2058 65.8941H44.9411C44.7867 65.7397 44.7095 65.6184 44.7095 65.5301C44.7536 64.9345 44.897 64.5484 45.1396 64.372H45.8014C46.5515 64.3499 46.9817 64.2175 47.092 63.9749C47.1582 63.8425 47.831 61.2063 49.1105 56.0662C50.39 50.9261 51.0629 48.2017 51.129 47.8928C51.1511 47.7825 51.1621 47.6281 51.1621 47.4295C51.1621 46.5251 50.8864 46.0728 50.3349 46.0728C49.8495 46.0728 49.4414 46.3817 49.1105 46.9994C48.7796 47.6171 48.5259 48.2899 48.3494 49.0179C48.1729 49.7459 48.0406 50.143 47.9523 50.2092C47.9082 50.2533 47.7317 50.2753 47.4229 50.2753H46.9596C46.8273 50.143 46.7611 50.0437 46.7611 49.9775ZM51.8901 56.0993C52.3755 57.7759 53.1917 58.6142 54.3388 58.6142C55.0007 58.6142 55.6404 58.3605 56.2581 57.8531C56.8758 57.3457 57.3832 56.706 57.7803 55.9338C58.1774 55.1838 58.5744 53.9925 58.9715 52.3601C59.3686 50.7276 59.5782 49.5143 59.6003 48.7201V48.5215C59.6003 46.8891 58.9274 46.0728 57.5817 46.0728C57.3391 46.0728 57.0964 46.1059 56.8537 46.1721C56.6111 46.2383 56.3684 46.3376 56.1257 46.4699C55.8831 46.6023 55.6625 46.7457 55.4639 46.9001C55.2654 47.0545 55.0779 47.22 54.9014 47.3965C54.7249 47.5729 54.5594 47.7384 54.405 47.8928C54.2506 48.0472 54.1293 48.2017 54.041 48.3561C53.9528 48.5105 53.8645 48.6208 53.7763 48.687L53.677 48.8194C53.677 48.8414 53.6439 48.9958 53.5778 49.2826C53.5116 49.5694 53.3902 50.0547 53.2138 50.7386C53.0373 51.4225 52.8829 51.9961 52.7505 52.4593C52.1769 54.7977 51.8901 56.0111 51.8901 56.0993Z" fill="black"/>
<path d="M67.6278 50.9158L67.3236 51.0327C67.1053 51.1107 66.7933 51.1887 66.3878 51.2667C65.9823 51.3447 65.53 51.3993 65.0309 51.4305H64.5864V50.3543H65.0309C65.7639 50.3231 66.4424 50.2061 67.0663 50.0034C67.6901 49.8006 68.1269 49.6134 68.3764 49.4419C68.626 49.2703 68.8443 49.0988 69.0315 48.9272C69.0627 48.8804 69.1562 48.857 69.3122 48.857C69.4526 48.857 69.5851 48.9038 69.7099 48.9974V55.9925L69.7333 63.011C69.8425 63.1202 69.9361 63.1904 70.0141 63.2216C70.092 63.2528 70.2792 63.284 70.5755 63.3152C70.8719 63.3464 71.3554 63.362 72.026 63.362H72.6343V64.4381H72.377C72.0494 64.3914 70.8095 64.368 68.6571 64.368C66.536 64.368 65.3116 64.3914 64.9841 64.4381H64.7034V63.362H65.3116C65.6548 63.362 65.9511 63.362 66.2007 63.362C66.4502 63.362 66.6452 63.3542 66.7855 63.3386C66.9259 63.323 67.0507 63.2996 67.1599 63.2684C67.269 63.2372 67.3314 63.2216 67.347 63.2216C67.3626 63.2216 67.4094 63.1826 67.4874 63.1046C67.5654 63.0266 67.6122 62.9954 67.6278 63.011V50.9158Z" fill="black"/>
<path d="M67.959 36.9729C67.959 36.7964 68.0141 36.642 68.1244 36.5096C68.2347 36.3773 68.4002 36.3111 68.6208 36.3111C68.7752 36.3111 68.9076 36.3662 69.0179 36.4765C69.1282 36.5648 69.2385 36.7744 69.3488 37.1053C69.5694 37.9215 70.0216 38.5502 70.7055 38.9914C70.9481 39.1459 71.0695 39.3444 71.0695 39.5871C71.0695 39.7856 71.0364 39.918 70.9702 39.9841C70.904 40.0503 70.7496 40.1496 70.5069 40.282C69.5583 40.7673 68.7311 41.4622 68.0251 42.3667C67.981 42.4108 67.9259 42.477 67.8597 42.5652C67.7935 42.6535 67.7384 42.7196 67.6942 42.7638C67.6501 42.8079 67.595 42.8299 67.5288 42.8299C67.4626 42.8299 67.3854 42.841 67.2971 42.863C67.1427 42.863 66.9993 42.8079 66.867 42.6976C66.7346 42.5873 66.6574 42.4218 66.6353 42.2012C66.6353 41.7821 67.1538 41.1313 68.1906 40.2489H62.5321L56.8736 40.2158C56.5868 40.0172 56.4434 39.8077 56.4434 39.5871C56.4434 39.4326 56.5868 39.212 56.8736 38.9252H68.7531C68.2237 38.087 67.959 37.4362 67.959 36.9729Z" fill="black"/>
</g>
<path d="M232.215 34.6196C232.215 35.2752 232.35 35.8634 232.62 36.384C232.89 36.9047 233.237 37.3 233.661 37.57C234.085 37.8399 234.5 38.0617 234.905 38.2353C235.31 38.4088 235.647 38.5341 235.917 38.6113L236.351 38.6691L236.409 38.6402L236.785 37.4543C237.132 36.3358 237.45 35.3813 237.74 34.5907C238.029 33.8001 238.405 32.9516 238.868 32.0453C239.33 31.1389 239.793 30.4062 240.256 29.8469C240.719 29.2877 241.288 28.8249 241.963 28.4585C242.638 28.0921 243.341 27.909 244.074 27.909C244.942 27.909 245.713 28.2175 246.388 28.8346C247.063 29.4516 247.41 30.4929 247.43 31.9585C247.43 33.4626 247.015 34.9089 246.186 36.2973C245.357 37.6857 244.219 38.8138 242.773 39.6815C241.326 40.5493 239.803 40.9831 238.202 40.9831C237.701 40.9831 237.45 41.0024 237.45 41.041L237.248 42.0823C237.132 42.7572 236.997 43.4996 236.843 44.3095C236.689 45.1194 236.583 45.6401 236.525 45.8715C236.428 46.3343 236.178 46.6525 235.773 46.826C235.561 46.9417 235.319 46.9996 235.05 46.9996C234.452 46.9417 234.153 46.6236 234.153 46.0451C234.153 45.8522 234.683 44.0878 235.744 40.7517L235.599 40.6939C235.503 40.6553 235.368 40.6071 235.194 40.5493C235.021 40.4914 234.808 40.4046 234.558 40.2889C234.307 40.1732 234.056 40.0383 233.806 39.884C233.555 39.7297 233.295 39.5562 233.025 39.3633C232.755 39.1705 232.504 38.9295 232.273 38.6402C232.041 38.351 231.82 38.0424 231.607 37.7146C231.395 37.3868 231.251 37.0108 231.174 36.5865C231.096 36.1623 231.039 35.6995 231 35.1981C231 34.2725 231.251 33.1058 231.752 31.6982C232.253 30.2905 232.957 29.1335 233.864 28.2271H234.24C234.645 28.2271 234.847 28.3043 234.847 28.4585C234.847 28.5742 234.77 28.7092 234.616 28.8635C233.825 29.7891 233.237 30.84 232.851 32.0163C232.466 33.1926 232.253 34.0604 232.215 34.6196ZM246.157 32.6527C246.157 31.8428 245.925 31.2064 245.463 30.7436C245 30.2808 244.383 30.0398 243.611 30.0205C242.666 30.0205 241.779 30.4062 240.95 31.1775C240.121 31.9488 239.437 33.0191 238.897 34.3882C238.627 35.0438 238.357 36.0948 238.087 37.541L237.826 38.8427C238.173 38.8812 238.366 38.9005 238.405 38.9005C240.661 38.9005 242.512 38.2353 243.958 36.9047C245.405 35.5741 246.138 34.1568 246.157 32.6527Z" fill="black"/>
<path d="M248.941 39.1635C248.955 39.1226 248.968 39.0681 248.982 38.9999C248.996 38.9317 249.03 38.7818 249.084 38.55C249.139 38.3182 249.207 38.1069 249.289 37.916C249.371 37.7252 249.473 37.5002 249.596 37.2412C249.718 36.9821 249.855 36.7776 250.005 36.6277C250.155 36.4777 250.332 36.3277 250.536 36.1778C250.741 36.0278 250.966 35.9665 251.211 35.9937C252.234 35.9937 252.888 36.43 253.174 37.3025L253.379 37.1185C254.224 36.3686 255.028 35.9937 255.792 35.9937C256.678 35.9937 257.373 36.3141 257.878 36.9549C258.382 37.5957 258.635 38.3728 258.635 39.2862C258.635 40.7586 258.116 42.1151 257.08 43.3558C256.044 44.5964 254.872 45.2235 253.563 45.2372C253.263 45.2372 252.997 45.1963 252.765 45.1145C252.615 45.0463 252.459 44.9441 252.295 44.8077C252.131 44.6714 252.002 44.5555 251.906 44.4601L251.763 44.2965C251.75 44.3101 251.6 44.9032 251.313 46.0756C251.027 47.2481 250.884 47.8412 250.884 47.8548C250.884 47.9366 250.938 47.9843 251.048 47.9979C251.157 48.0116 251.409 48.032 251.804 48.0593H252.315C252.397 48.1547 252.438 48.2161 252.438 48.2433C252.438 48.2706 252.418 48.3933 252.377 48.6114C252.336 48.775 252.295 48.8773 252.254 48.9182C252.213 48.9591 252.125 48.9864 251.988 49C251.961 49 251.886 49 251.763 49C251.641 49 251.409 48.9932 251.068 48.9795C250.727 48.9659 250.305 48.9591 249.8 48.9591C248.846 48.9591 248.239 48.9727 247.98 49H247.816C247.721 48.9046 247.673 48.8296 247.673 48.775C247.701 48.4069 247.789 48.1684 247.939 48.0593H248.348C248.812 48.0457 249.078 47.9639 249.146 47.8139C249.187 47.7321 249.602 46.1029 250.393 42.9263C251.184 39.7497 251.6 38.066 251.641 37.8751C251.654 37.807 251.661 37.7115 251.661 37.5888C251.661 37.0299 251.491 36.7504 251.15 36.7504C250.85 36.7504 250.598 36.9412 250.393 37.323C250.189 37.7047 250.032 38.1205 249.923 38.5704C249.814 39.0203 249.732 39.2657 249.677 39.3066C249.65 39.3339 249.541 39.3475 249.35 39.3475H249.064C248.982 39.2657 248.941 39.2044 248.941 39.1635ZM252.111 42.9468C252.411 43.9829 252.915 44.501 253.624 44.501C254.033 44.501 254.429 44.3442 254.81 44.0306C255.192 43.7171 255.506 43.3217 255.751 42.8445C255.996 42.381 256.242 41.6448 256.487 40.6359C256.733 39.627 256.862 38.8772 256.876 38.3864V38.2637C256.876 37.2548 256.46 36.7504 255.628 36.7504C255.478 36.7504 255.328 36.7708 255.178 36.8117C255.028 36.8526 254.879 36.914 254.729 36.9958C254.579 37.0776 254.442 37.1662 254.32 37.2616C254.197 37.3571 254.081 37.4593 253.972 37.5684C253.863 37.6775 253.761 37.7797 253.665 37.8751C253.57 37.9706 253.495 38.066 253.44 38.1614C253.386 38.2569 253.331 38.325 253.277 38.3659L253.215 38.4477C253.215 38.4614 253.195 38.5568 253.154 38.734C253.113 38.9113 253.038 39.2112 252.929 39.6338C252.82 40.0565 252.724 40.411 252.643 40.6973C252.288 42.1424 252.111 42.8922 252.111 42.9468Z" fill="black"/>
<path d="M261.837 39.7433L261.649 39.8156C261.514 39.8638 261.321 39.912 261.071 39.9602C260.82 40.0084 260.54 40.0421 260.232 40.0614H259.957V39.3963H260.232C260.685 39.3771 261.104 39.3048 261.49 39.1795C261.875 39.0542 262.145 38.9385 262.299 38.8325C262.454 38.7264 262.589 38.6204 262.704 38.5144C262.724 38.4855 262.781 38.471 262.878 38.471C262.965 38.471 263.047 38.4999 263.124 38.5578V42.8808L263.138 47.2182C263.206 47.2857 263.263 47.3291 263.312 47.3484C263.36 47.3676 263.475 47.3869 263.659 47.4062C263.842 47.4255 264.141 47.4351 264.555 47.4351H264.931V48.1002H264.772C264.569 48.0713 263.803 48.0568 262.473 48.0568C261.162 48.0568 260.405 48.0713 260.203 48.1002H260.03V47.4351H260.405C260.618 47.4351 260.801 47.4351 260.955 47.4351C261.109 47.4351 261.23 47.4303 261.316 47.4207C261.403 47.411 261.48 47.3966 261.548 47.3773C261.615 47.358 261.654 47.3484 261.663 47.3484C261.673 47.3484 261.702 47.3243 261.75 47.2761C261.798 47.2279 261.827 47.2086 261.837 47.2182V39.7433Z" fill="black"/>
<path d="M271.177 33.4626C271.177 32.132 271.274 30.869 271.466 29.6734C271.659 28.4778 271.881 27.4462 272.132 26.5784C272.382 25.7106 272.739 24.8622 273.202 24.033C273.665 23.2038 274.031 22.5578 274.301 22.095C274.571 21.6322 274.976 21.1308 275.516 20.5909C276.056 20.0509 276.374 19.7231 276.47 19.6074C276.567 19.4917 276.808 19.2893 277.194 19H277.57H277.685C277.955 19 278.09 19.0868 278.09 19.2603C278.09 19.3182 277.926 19.5207 277.598 19.8678C277.271 20.2149 276.875 20.7259 276.413 21.4008C275.95 22.0757 275.477 22.9049 274.995 23.8884C274.513 24.8718 274.108 26.2024 273.78 27.88C273.453 29.5577 273.289 31.4186 273.289 33.4626C273.289 35.5066 273.453 37.3579 273.78 39.0162C274.108 40.6746 274.503 42.0148 274.966 43.0368C275.429 44.0589 275.902 44.8881 276.384 45.5244C276.866 46.1608 277.271 46.6718 277.598 47.0574C277.926 47.4431 278.09 47.6456 278.09 47.6649C278.09 47.8384 277.946 47.9252 277.656 47.9252H277.57H277.194L276.384 47.231C274.571 45.5919 273.25 43.5479 272.421 41.0989C271.592 38.6499 271.177 36.1044 271.177 33.4626Z" fill="black"/>
<path d="M280.375 32.3924C280.395 32.3345 280.414 32.2574 280.433 32.161C280.452 32.0645 280.501 31.8524 280.578 31.5246C280.655 31.1968 280.751 30.8979 280.867 30.6279C280.983 30.358 281.127 30.0398 281.301 29.6734C281.474 29.307 281.667 29.0178 281.879 28.8056C282.092 28.5935 282.342 28.3814 282.631 28.1693C282.921 27.9572 283.239 27.8704 283.586 27.909C285.032 27.909 285.958 28.526 286.363 29.7602L286.652 29.4998C287.848 28.4393 288.985 27.909 290.065 27.909C291.319 27.909 292.302 28.3621 293.016 29.2684C293.729 30.1748 294.086 31.2739 294.086 32.5659C294.086 34.6485 293.353 36.5672 291.888 38.322C290.422 40.0768 288.764 40.9639 286.912 40.9832C286.488 40.9832 286.112 40.9253 285.784 40.8096C285.572 40.7132 285.35 40.5686 285.119 40.3757C284.888 40.1829 284.704 40.019 284.569 39.884L284.367 39.6526C284.348 39.6719 284.136 40.5107 283.731 42.1691C283.326 43.8275 283.123 44.6663 283.123 44.6856C283.123 44.8013 283.2 44.8688 283.355 44.8881C283.509 44.9073 283.866 44.9363 284.425 44.9748H285.148C285.264 45.1098 285.322 45.1966 285.322 45.2352C285.322 45.2737 285.293 45.4473 285.235 45.7558C285.177 45.9872 285.119 46.1318 285.061 46.1897C285.003 46.2475 284.878 46.2861 284.685 46.3054C284.647 46.3054 284.541 46.3054 284.367 46.3054C284.193 46.3054 283.866 46.2957 283.384 46.2765C282.901 46.2572 282.304 46.2475 281.59 46.2475C280.24 46.2475 279.382 46.2668 279.016 46.3054H278.784C278.649 46.1704 278.582 46.0643 278.582 45.9872C278.621 45.4666 278.746 45.1291 278.958 44.9748H279.536C280.192 44.9555 280.568 44.8398 280.665 44.6277C280.722 44.512 281.311 42.2077 282.429 37.7146C283.547 33.2216 284.136 30.84 284.193 30.5701C284.213 30.4737 284.222 30.3387 284.222 30.1651C284.222 29.3745 283.981 28.9792 283.499 28.9792C283.075 28.9792 282.718 29.2492 282.429 29.7891C282.14 30.329 281.918 30.9172 281.764 31.5535C281.609 32.1899 281.494 32.537 281.417 32.5948C281.378 32.6334 281.224 32.6527 280.954 32.6527H280.549C280.433 32.537 280.375 32.4502 280.375 32.3924ZM284.859 37.7435C285.283 39.2091 285.996 39.9418 286.999 39.9418C287.578 39.9418 288.137 39.7201 288.677 39.2766C289.217 38.833 289.66 38.2738 290.007 37.5989C290.355 36.9433 290.702 35.902 291.049 34.475C291.396 33.048 291.579 31.9874 291.598 31.2932V31.1197C291.598 29.6927 291.01 28.9792 289.834 28.9792C289.622 28.9792 289.41 29.0081 289.198 29.066C288.985 29.1238 288.773 29.2106 288.561 29.3263C288.349 29.442 288.156 29.5673 287.983 29.7023C287.809 29.8373 287.645 29.9819 287.491 30.1362C287.337 30.2905 287.192 30.4351 287.057 30.5701C286.922 30.7051 286.816 30.84 286.739 30.975C286.662 31.11 286.585 31.2064 286.507 31.2643L286.421 31.38C286.421 31.3993 286.392 31.5343 286.334 31.7849C286.276 32.0356 286.17 32.4599 286.016 33.0576C285.861 33.6554 285.726 34.1568 285.611 34.5618C285.109 36.6058 284.859 37.6664 284.859 37.7435Z" fill="black"/>
<path d="M296.488 36.2596C296.12 36.2596 295.827 36.1369 295.609 35.8915C295.391 35.6461 295.282 35.3461 295.282 34.9917C295.282 34.0237 295.643 33.1852 296.366 32.4763C297.088 31.7674 297.988 31.4129 299.065 31.4129C300.306 31.4129 301.342 31.7946 302.174 32.5581C303.005 33.3216 303.428 34.31 303.442 35.5234C303.442 36.1096 303.305 36.6686 303.033 37.2003C302.76 37.732 302.433 38.1955 302.051 38.5909C301.669 38.9863 301.124 39.4907 300.415 40.1042C299.924 40.5268 299.242 41.154 298.37 41.9856L297.163 43.1308L298.718 43.1513C300.858 43.1513 301.996 43.1172 302.133 43.049C302.228 43.0217 302.392 42.4151 302.624 41.2289V41.1676H303.442V41.2289C303.428 41.2698 303.339 41.8902 303.176 43.0899C303.012 44.2896 302.91 44.9168 302.869 44.9713V45.0327H295.282V44.6441V44.3987C295.282 44.3033 295.323 44.201 295.405 44.092C295.486 43.9829 295.691 43.7443 296.018 43.3762C296.413 42.9399 296.754 42.5582 297.041 42.231C297.163 42.0947 297.395 41.8425 297.736 41.4743C298.077 41.1062 298.309 40.854 298.431 40.7177C298.554 40.5814 298.752 40.3564 299.024 40.0428C299.297 39.7293 299.488 39.4975 299.597 39.3475C299.706 39.1976 299.863 38.9931 300.067 38.734C300.272 38.475 300.415 38.2569 300.497 38.0796C300.579 37.9024 300.681 37.7047 300.803 37.4866C300.926 37.2684 301.015 37.0503 301.069 36.8322C301.124 36.614 301.172 36.4095 301.212 36.2187C301.253 36.0278 301.274 35.8028 301.274 35.5438C301.274 34.6849 301.042 33.9419 300.579 33.3148C300.115 32.6876 299.454 32.374 298.595 32.374C298.145 32.374 297.75 32.4899 297.409 32.7217C297.068 32.9535 296.829 33.1784 296.693 33.3966C296.557 33.6147 296.488 33.7442 296.488 33.7851C296.488 33.7987 296.523 33.8056 296.591 33.8056C296.836 33.8056 297.088 33.901 297.347 34.0919C297.606 34.2827 297.736 34.5963 297.736 35.0326C297.736 35.3734 297.627 35.6597 297.409 35.8915C297.191 36.1232 296.884 36.2459 296.488 36.2596Z" fill="black"/>
<path d="M298.905 21.0248C298.905 20.8705 298.953 20.7355 299.049 20.6198C299.146 20.5041 299.29 20.4463 299.483 20.4463C299.618 20.4463 299.734 20.4945 299.83 20.5909C299.927 20.668 300.023 20.8512 300.12 21.1405C300.312 21.8539 300.708 22.4035 301.306 22.7892C301.518 22.9242 301.624 23.0977 301.624 23.3099C301.624 23.4834 301.595 23.5991 301.537 23.657C301.479 23.7148 301.344 23.8016 301.132 23.9173C300.303 24.3415 299.58 24.9489 298.963 25.7396C298.924 25.7781 298.876 25.836 298.818 25.9131C298.76 25.9903 298.712 26.0481 298.673 26.0867C298.635 26.1252 298.587 26.1445 298.529 26.1445C298.471 26.1445 298.403 26.1542 298.326 26.1734C298.191 26.1734 298.066 26.1252 297.95 26.0288C297.835 25.9324 297.767 25.7878 297.748 25.5949C297.748 25.2286 298.201 24.6597 299.107 23.8884H294.161L289.215 23.8594C288.964 23.6859 288.839 23.5027 288.839 23.3099C288.839 23.1749 288.964 22.982 289.215 22.7313H299.599C299.136 21.9986 298.905 21.4297 298.905 21.0248Z" fill="black"/>
<path d="M307.669 19.0289L307.785 19C307.881 19 307.978 19 308.074 19H308.421L309.231 19.6942C311.044 21.3333 312.365 23.3773 313.194 25.8263C314.023 28.2753 314.438 30.8208 314.438 33.4626C314.438 34.7739 314.341 36.0369 314.148 37.2518C313.956 38.4667 313.734 39.4983 313.483 40.3468C313.232 41.1953 312.876 42.0437 312.413 42.8922C311.95 43.7407 311.584 44.3867 311.314 44.8302C311.044 45.2737 310.648 45.7655 310.128 46.3054C309.607 46.8453 309.299 47.1635 309.202 47.2599C309.106 47.3563 308.884 47.5395 308.537 47.8095C308.479 47.8674 308.44 47.9059 308.421 47.9252H308.074C307.92 47.9252 307.814 47.9252 307.756 47.9252C307.698 47.9252 307.65 47.8963 307.611 47.8384C307.573 47.7806 307.544 47.6938 307.525 47.5781C307.544 47.5588 307.65 47.4335 307.843 47.2021C310.832 44.0974 312.326 39.5176 312.326 33.4626C312.326 27.4076 310.832 22.8278 307.843 19.7231C307.65 19.4917 307.544 19.3664 307.525 19.3471C307.525 19.1928 307.573 19.0868 307.669 19.0289Z" fill="black"/>
<path d="M326.042 33.8386C326.042 33.8386 326.042 33.7133 326.042 33.4626C326.042 33.2119 326.177 33.0191 326.447 32.8841H343.253C343.542 33.0384 343.687 33.2312 343.687 33.4626C343.687 33.694 343.542 33.8868 343.253 34.0411H326.447C326.177 33.9061 326.042 33.7133 326.042 33.4626V33.8386Z" fill="black"/>
<path d="M353.151 32.3923C353.17 32.3345 353.19 32.2574 353.209 32.1609C353.228 32.0645 353.276 31.8524 353.354 31.5246C353.431 31.1968 353.527 30.8979 353.643 30.6279C353.759 30.3579 353.903 30.0398 354.077 29.6734C354.25 29.307 354.443 29.0177 354.655 28.8056C354.867 28.5935 355.118 28.3814 355.407 28.1693C355.697 27.9571 356.015 27.8704 356.362 27.9089C356.921 27.9089 357.413 28.0246 357.837 28.256C358.261 28.4874 358.56 28.6996 358.734 28.8924C358.907 29.0852 359.013 29.2781 359.052 29.4709C359.09 29.5866 359.119 29.6445 359.139 29.6445C359.158 29.6445 359.235 29.577 359.37 29.442C360.296 28.4392 361.366 27.9379 362.581 27.9379H362.668C363.593 27.9379 364.287 28.3332 364.75 29.1238C364.904 29.4902 364.982 29.8469 364.982 30.194C364.982 30.7725 364.856 31.2353 364.605 31.5824C364.355 31.9295 364.104 32.1513 363.853 32.2477C363.603 32.3441 363.362 32.3827 363.13 32.3634C362.745 32.3634 362.436 32.2574 362.205 32.0452C361.973 31.8331 361.858 31.5535 361.858 31.2064C361.858 30.2808 362.398 29.6637 363.477 29.3552C363.053 29.1045 362.706 28.9792 362.436 28.9792C361.356 28.9792 360.363 29.6927 359.457 31.1196C359.264 31.4282 359.119 31.7463 359.023 32.0742C358.927 32.402 358.599 33.6843 358.039 35.9212C357.384 38.6209 357.008 40.0575 356.911 40.2311C356.661 40.7517 356.246 41.0121 355.668 41.0121C355.417 41.0121 355.214 40.9542 355.06 40.8385C354.906 40.7228 354.8 40.6071 354.742 40.4914C354.684 40.3757 354.665 40.2793 354.684 40.2021C354.684 39.9515 355.07 38.2931 355.841 35.227C356.612 32.1609 356.998 30.4544 356.998 30.1073C356.998 29.3552 356.747 28.9792 356.246 28.9792C355.841 28.9792 355.494 29.2491 355.205 29.7891C354.916 30.329 354.684 30.9172 354.511 31.5535C354.337 32.1899 354.231 32.537 354.192 32.5948C354.154 32.6334 354 32.6527 353.73 32.6527H353.325C353.209 32.537 353.151 32.4502 353.151 32.3923Z" fill="black"/>
<path d="M367.818 36.2596C367.45 36.2596 367.157 36.1369 366.939 35.8915C366.721 35.6461 366.611 35.3461 366.611 34.9916C366.611 34.0237 366.973 33.1852 367.695 32.4763C368.418 31.7673 369.318 31.4129 370.395 31.4129C371.635 31.4129 372.672 31.7946 373.503 32.5581C374.335 33.3216 374.757 34.31 374.771 35.5233C374.771 36.1096 374.635 36.6686 374.362 37.2003C374.089 37.732 373.762 38.1955 373.38 38.5909C372.999 38.9862 372.453 39.4907 371.744 40.1042C371.254 40.5268 370.572 41.1539 369.699 41.9856L368.493 43.1308L370.047 43.1512C372.188 43.1512 373.326 43.1172 373.462 43.049C373.558 43.0217 373.721 42.415 373.953 41.2289V41.1676H374.771V41.2289C374.757 41.2698 374.669 41.8902 374.505 43.0899C374.342 44.2896 374.239 44.9168 374.198 44.9713V45.0327H366.611V44.6441V44.3987C366.611 44.3033 366.652 44.201 366.734 44.0919C366.816 43.9829 367.02 43.7443 367.348 43.3762C367.743 42.9399 368.084 42.5582 368.37 42.231C368.493 42.0947 368.725 41.8424 369.065 41.4743C369.406 41.1062 369.638 40.854 369.761 40.7177C369.883 40.5813 370.081 40.3564 370.354 40.0428C370.626 39.7293 370.817 39.4975 370.926 39.3475C371.035 39.1976 371.192 38.9931 371.397 38.734C371.601 38.475 371.744 38.2568 371.826 38.0796C371.908 37.9024 372.01 37.7047 372.133 37.4866C372.256 37.2684 372.344 37.0503 372.399 36.8322C372.453 36.614 372.501 36.4095 372.542 36.2187C372.583 36.0278 372.603 35.8028 372.603 35.5438C372.603 34.6849 372.372 33.9419 371.908 33.3147C371.444 32.6876 370.783 32.374 369.924 32.374C369.474 32.374 369.079 32.4899 368.738 32.7217C368.397 32.9535 368.159 33.1784 368.023 33.3965C367.886 33.6147 367.818 33.7442 367.818 33.7851C367.818 33.7987 367.852 33.8055 367.92 33.8055C368.166 33.8055 368.418 33.901 368.677 34.0918C368.936 34.2827 369.065 34.5963 369.065 35.0325C369.065 35.3734 368.956 35.6597 368.738 35.8915C368.52 36.1232 368.213 36.2459 367.818 36.2596Z" fill="black"/>
<path d="M405.373 41.0121C405.373 41.0121 405.373 41.0892 405.373 41.2435C405.373 41.3977 405.315 41.5327 405.199 41.6484C405.083 41.7641 404.987 41.8316 404.91 41.8509C404.775 41.8509 403.29 41.1856 400.455 39.8551C397.621 38.5245 394.825 37.2036 392.067 35.8923L387.902 33.8965C387.767 33.8001 387.699 33.6554 387.699 33.4626C387.699 33.2505 387.777 33.0962 387.931 32.9998C398.98 27.7161 404.64 25.0743 404.91 25.0743C404.968 25.0743 405.054 25.1321 405.17 25.2478C405.286 25.3635 405.353 25.5082 405.373 25.6817C405.392 25.8553 405.324 25.9903 405.17 26.0867C405.151 26.106 402.548 27.3497 397.36 29.818L389.666 33.4626L397.36 37.1072C402.548 39.5755 405.151 40.8192 405.17 40.8385C405.305 40.9542 405.373 41.0892 405.373 41.2435V41.0121Z" fill="black"/>
<path d="M418.612 23.7726C419.692 22.2107 421.167 21.4297 423.037 21.4297C423.963 21.4297 424.889 21.6804 425.814 22.1818C426.74 22.6831 427.492 23.5702 428.07 24.8429C428.784 26.4434 429.141 28.6417 429.141 31.4378C429.141 34.4268 428.726 36.7119 427.897 38.2931C427.511 39.103 426.981 39.749 426.306 40.2311C425.631 40.7132 425.043 41.0121 424.541 41.1278C424.04 41.2435 423.548 41.311 423.066 41.3302C422.565 41.3302 422.063 41.2724 421.562 41.1567C421.061 41.041 420.473 40.7325 419.798 40.2311C419.123 39.7297 418.592 39.0837 418.207 38.2931C417.378 36.7119 416.963 34.4268 416.963 31.4378C416.963 28.0825 417.513 25.5274 418.612 23.7726ZM425.12 23.4255C424.541 22.8085 423.857 22.4999 423.066 22.4999C422.256 22.4999 421.562 22.8085 420.984 23.4255C420.502 23.9269 420.183 24.6211 420.029 25.5082C419.875 26.3952 419.798 28.2464 419.798 31.0618C419.798 34.1086 419.875 36.1141 420.029 37.0782C420.183 38.0424 420.53 38.8041 421.07 39.3633C421.61 39.9418 422.276 40.2311 423.066 40.2311C423.838 40.2311 424.493 39.9418 425.033 39.3633C425.592 38.7848 425.939 37.9749 426.074 36.9336C426.209 35.8923 426.287 33.935 426.306 31.0618C426.306 28.2657 426.229 26.4241 426.074 25.5371C425.92 24.65 425.602 23.9462 425.12 23.4255Z" fill="black"/>
<defs>
<linearGradient id="paint0_linear_6_12" x1="76" y1="0" x2="76" y2="148" gradientUnits="userSpaceOnUse">
<stop stop-color="#D9D9D9"/>
<stop offset="1" stop-color="#737373" stop-opacity="0"/>
</linearGradient>
<linearGradient id="paint1_linear_6_12" x1="147" y1="84" x2="147" y2="232" gradientUnits="userSpaceOnUse">
<stop stop-color="#D9D9D9"/>
<stop offset="1" stop-color="#737373" stop-opacity="0"/>
</linearGradient>
<clipPath id="clip0_6_12">
<rect width="16" height="21" fill="white" transform="translate(144 102)"/>
</clipPath>
<clipPath id="clip1_6_12">
<rect width="30" height="32.8961" fill="white" transform="translate(150 152)"/>
</clipPath>
<clipPath id="clip2_6_12">
<rect width="30" height="32.8961" fill="white" transform="translate(46 33)"/>
</clipPath>
</defs>
</svg>
